<?xml version="1.0" encoding="UTF-8"?>
<svg version="1.1" xmlns="http://www.w3.org/2000/svg" width="874" height="286">
<path d="M0 0 C288.42 0 576.84 0 874 0 C874 94.38 874 188.76 874 286 C585.58 286 297.16 286 0 286 C0 191.62 0 97.24 0 0 Z " fill="#FEFEFE" transform="translate(0,0)"/>
<path d="M0 0 C1.58206057 0.00667536 3.16410534 0.0186375 4.74609375 0.03515625 C5.55240234 0.03966797 6.35871094 0.04417969 7.18945312 0.04882812 C9.18753131 0.06065107 11.18557158 0.07858711 13.18359375 0.09765625 C14.87555879 3.48158633 14.30345924 7.32243416 14.28125 11.04296875 C14.27983505 11.92798065 14.2784201 12.81299255 14.27696228 13.724823 C14.27135515 16.55746816 14.25880146 19.39003489 14.24609375 22.22265625 C14.24107967 24.14062386 14.2365166 26.05859271 14.23242188 27.9765625 C14.22138341 32.68362407 14.204114 37.39062685 14.18359375 42.09765625 C15.08190918 42.09241943 15.98022461 42.08718262 16.90576172 42.08178711 C20.23421874 42.064759 23.56262956 42.05221288 26.89111328 42.04272461 C28.33252695 42.03769151 29.77393551 42.03086452 31.21533203 42.0222168 C33.2854946 42.01010642 35.35558976 42.00441778 37.42578125 42 C38.67214355 41.99476318 39.91850586 41.98952637 41.20263672 41.98413086 C44.18359375 42.09765625 44.18359375 42.09765625 46.18359375 43.09765625 C46.59088603 45.41922222 46.92798052 47.75453495 47.18359375 50.09765625 C47.60640625 49.08574219 48.02921875 48.07382813 48.46484375 47.03125 C50.05257082 43.32562173 51.84338389 39.74775837 53.68359375 36.16015625 C56.18750167 31.22481336 58.37615617 26.3297124 60.18359375 21.09765625 C60.84426094 19.4286023 61.50797627 17.76071465 62.18359375 16.09765625 C62.84359375 16.09765625 63.50359375 16.09765625 64.18359375 16.09765625 C64.84359375 12.79765625 65.50359375 9.49765625 66.18359375 6.09765625 C66.84359375 6.09765625 67.50359375 6.09765625 68.18359375 6.09765625 C68.32796875 5.29328125 68.47234375 4.48890625 68.62109375 3.66015625 C69.18359375 1.09765625 69.18359375 1.09765625 70.18359375 0.09765625 C71.89131733 0.01051794 73.60258024 -0.00934382 75.3125 0 C76.86420898 0.00483398 76.86420898 0.00483398 78.44726562 0.00976562 C79.53587891 0.01814453 80.62449219 0.02652344 81.74609375 0.03515625 C83.38481445 0.04192383 83.38481445 0.04192383 85.05664062 0.04882812 C87.7656787 0.06065799 90.47460974 0.07714082 93.18359375 0.09765625 C93.43753906 0.9175 93.69148438 1.73734375 93.953125 2.58203125 C94.29730469 3.6596875 94.64148438 4.73734375 94.99609375 5.84765625 C95.33253906 6.915 95.66898437 7.98234375 96.015625 9.08203125 C97.11355223 11.91681326 98.35258231 13.71834742 100.18359375 16.09765625 C100.66903874 18.07179921 101.15157991 20.04696603 101.59375 22.03125 C102.34637331 24.6679237 103.67851098 26.85519836 105.109375 29.1796875 C106.8201348 32.23417137 107.98785264 35.48608594 109.23828125 38.75 C110.20426651 41.27558574 110.20426651 41.27558574 111.87109375 44.22265625 C113.55116298 47.90280789 113.7439583 51.07930603 114.18359375 55.09765625 C111.41250068 55.15158022 108.64245557 55.1912908 105.87109375 55.22265625 C105.08541016 55.23941406 104.29972656 55.25617188 103.49023438 55.2734375 C102.35424805 55.28310547 102.35424805 55.28310547 101.1953125 55.29296875 C100.15056763 55.3086792 100.15056763 55.3086792 99.0847168 55.32470703 C97.18359375 55.09765625 97.18359375 55.09765625 94.18359375 53.09765625 C93.68859375 50.12765625 93.68859375 50.12765625 93.18359375 47.09765625 C84.93359375 47.09765625 76.68359375 47.09765625 68.18359375 47.09765625 C67.19359375 50.06765625 67.19359375 50.06765625 66.18359375 53.09765625 C65.52359375 54.08765625 64.86359375 55.07765625 64.18359375 56.09765625 C61.32357788 56.4584198 61.32357788 56.4584198 57.62255859 56.43823242 C56.61262596 56.43888954 56.61262596 56.43888954 55.58229065 56.43955994 C53.35274437 56.43746681 51.12394644 56.41411245 48.89453125 56.390625 C47.35039684 56.38503088 45.80625711 56.38075991 44.26211548 56.37776184 C40.19475648 56.36629851 36.12771804 56.33681887 32.06048584 56.3036499 C27.91146176 56.27298087 23.76238597 56.25926331 19.61328125 56.24414062 C11.46990485 56.2119503 3.32678916 56.16073633 -4.81640625 56.09765625 C-4.84167188 48.28312873 -4.8592373 40.46861167 -4.87133789 32.65405273 C-4.87638008 29.99324144 -4.88321361 27.33243293 -4.8918457 24.67163086 C-4.90391634 20.85660109 -4.90963554 17.04160781 -4.9140625 13.2265625 C-4.91922379 12.02866592 -4.92438507 10.83076935 -4.92970276 9.59657288 C-4.92977829 8.49550705 -4.92985382 7.39444122 -4.92993164 6.26000977 C-4.93215225 5.28516129 -4.93437286 4.31031281 -4.93666077 3.30592346 C-4.7286931 -0.51304473 -4.02116582 0.10289575 0 0 Z " fill="#BDD587" transform="translate(309.81640625,104.90234375)"/>
<path d="M0 0 C1.2684375 0.61875 1.2684375 0.61875 2.5625 1.25 C6.06992602 3.76815201 9.2271388 6.6837539 12 10 C12 10.66 12 11.32 12 12 C12.99 12 13.98 12 15 12 C15 13.32 15 14.64 15 16 C15.66 16 16.32 16 17 16 C19.01082649 24.95895015 20.70514536 35.01891742 18 44 C17.34 44 16.68 44 16 44 C15.9175 44.66 15.835 45.32 15.75 46 C14.74073023 50.03707907 12.93519598 53.31688508 11 57 C15.29 57 19.58 57 24 57 C23.01 55.68 22.02 54.36 21 53 C21 52.34 21 51.68 21 51 C20.34 51 19.68 51 19 51 C19 49.35 19 47.7 19 46 C26.2890898 44.08681157 32.54932699 43.95180646 40 45 C40 46.65 40 48.3 40 50 C38.515 50.495 38.515 50.495 37 51 C36.67 51.99 36.34 52.98 36 54 C35.01 54.495 35.01 54.495 34 55 C33.70053284 58.05456508 33.57433896 60.95370295 34 64 C36.27110728 66.85484511 36.27110728 66.85484511 39 69 C40.3125 71.3125 40.3125 71.3125 41 73 C41.66 73 42.32 73 43 73 C43.33 74.32 43.66 75.64 44 77 C44.66 77 45.32 77 46 77 C47.5225746 82.44133218 48.13514404 88.07029215 46.05859375 93.4296875 C44.85437626 95.55122428 43.7344091 97.28434127 42 99 C39.1875 99.5 39.1875 99.5 37 99 C37.99 98.67 38.98 98.34 40 98 C40.495 96.515 40.495 96.515 41 95 C41.66 95 42.32 95 43 95 C43.69508823 88.48755792 44.31909709 82.4489191 43 76 C42.34 76 41.68 76 41 76 C38 72.53846154 38 72.53846154 38 70 C37.1028125 70.309375 37.1028125 70.309375 36.1875 70.625 C34 71 34 71 31 69 C29.515 69.495 29.515 69.495 28 70 C27.875 65.25 27.875 65.25 29 63 C29.039992 61.00039988 29.04346799 58.99952758 29 57 C29.66 57 30.32 57 31 57 C31 56.01 31 55.02 31 54 C29.35 54.33 27.7 54.66 26 55 C26.33 55.33 26.66 55.66 27 56 C27.07244053 58.01964199 27.08377188 60.04167124 27.0625 62.0625 C27.05347656 63.16722656 27.04445313 64.27195312 27.03515625 65.41015625 C27.02355469 66.26480469 27.01195312 67.11945313 27 68 C25.3603125 68.5878125 25.3603125 68.5878125 23.6875 69.1875 C20.04877046 70.71341884 18.81300048 72.46942012 17 76 C16.34 76 15.68 76 15 76 C14.505 77.98 14.505 77.98 14 80 C13.34 80 12.68 80 12 80 C12.33 78.02 12.66 76.04 13 74 C13.66 74 14.32 74 15 74 C15.66 72.35 16.32 70.7 17 69 C10.07 69.99 10.07 69.99 3 71 C3 71.66 3 72.32 3 73 C2.01 73 1.02 73 0 73 C-0.12117188 74.21816406 -0.24234375 75.43632812 -0.3671875 76.69140625 C-0.53613072 78.31513829 -0.70541996 79.93883435 -0.875 81.5625 C-0.95363281 82.36236328 -1.03226563 83.16222656 -1.11328125 83.98632812 C-1.62995403 88.85497552 -2.53389593 93.30731257 -4 98 C-4.34179442 99.41464912 -4.67696419 100.83094982 -5 102.25 C-6 106 -6 106 -8 109 C-8.66 109 -9.32 109 -10 109 C-10.0825 109.7425 -10.165 110.485 -10.25 111.25 C-11.14809799 114.54302595 -12.38416074 115.85976788 -15 118 C-15.66 118 -16.32 118 -17 118 C-16.98839844 118.71027344 -16.97679687 119.42054688 -16.96484375 120.15234375 C-16.95582031 121.07144531 -16.94679687 121.99054688 -16.9375 122.9375 C-16.92589844 123.85402344 -16.91429687 124.77054687 -16.90234375 125.71484375 C-17 128 -17 128 -18 129 C-20.75 129.3125 -20.75 129.3125 -24 129 C-25.11375 128.0409375 -25.11375 128.0409375 -26.25 127.0625 C-30.22467769 124.08149174 -34.14516142 124.18853742 -39 124 C-39.75 120.8125 -39.75 120.8125 -40 117 C-39.01 115.824375 -39.01 115.824375 -38 114.625 C-35.70484598 111.61261035 -35.78243268 111.03614156 -36.1875 107.4375 C-36.52140488 105.32032291 -36.91141682 103.2978299 -37.52246094 101.2434082 C-38.12221955 98.42583053 -38.11177777 95.80266584 -38.09765625 92.921875 C-38.09443359 91.76171875 -38.09121094 90.6015625 -38.08789062 89.40625 C-38.07951172 88.1996875 -38.07113281 86.993125 -38.0625 85.75 C-38.05798828 84.52796875 -38.05347656 83.3059375 -38.04882812 82.046875 C-38.03704815 79.03120054 -38.02059853 76.01562502 -38 73 C-39.32 73 -40.64 73 -42 73 C-42.33 73.99 -42.66 74.98 -43 76 C-44.4375 77.6875 -44.4375 77.6875 -46 79 C-46.66 79 -47.32 79 -48 79 C-48.33 80.32 -48.66 81.64 -49 83 C-50.65 83 -52.3 83 -54 83 C-54.34553378 77.24110366 -54.36702695 72.93830619 -51 68 C-49.09071228 66.07543798 -47.21645176 64.60339064 -45 63 C-44.34 63 -43.68 63 -43 63 C-43 62.34 -43 61.68 -43 61 C-41.515 60.505 -41.515 60.505 -40 60 C-40 59.34 -40 58.68 -40 58 C-40.66 57.67 -41.32 57.34 -42 57 C-42 56.34 -42 55.68 -42 55 C-42.66 55 -43.32 55 -44 55 C-44.79423861 53.43880578 -45.58527123 51.87598036 -46.375 50.3125 C-47.03628906 49.00732422 -47.03628906 49.00732422 -47.7109375 47.67578125 C-51.99915757 38.77447594 -52.69104326 29.07513606 -49.5 19.5625 C-49.005 18.386875 -48.51 17.21125 -48 16 C-47.34 16 -46.68 16 -46 16 C-45.938125 15.0925 -45.87625 14.185 -45.8125 13.25 C-44.8092713 9.23708521 -43.43590857 8.17886885 -40 6 C-39.34 6 -38.68 6 -38 6 C-38 5.34 -38 4.68 -38 4 C-29.69546296 -5.94977551 -10.56097742 -5.48358443 0 0 Z M-35 5 C-35.99 5.41765625 -35.99 5.41765625 -37 5.84375 C-42.53259943 9.04228405 -46.56470937 17.77357614 -48.5703125 23.765625 C-50.16310102 32.0481253 -49.84497004 40.45330423 -45.30859375 47.703125 C-44.69113281 48.54359375 -44.07367188 49.3840625 -43.4375 50.25 C-40.05298013 54.89403974 -40.05298013 54.89403974 -39 57 C-38.01 57.33 -37.02 57.66 -36 58 C-35.67 58.66 -35.34 59.32 -35 60 C-28.72924337 63.90370344 -22.85709091 64.55500677 -15.625 64.3125 C-14.73683594 64.30283203 -13.84867188 64.29316406 -12.93359375 64.28320312 C-9.32562684 64.22043214 -6.44685864 64.14895288 -3 63 C-3 62.34 -3 61.68 -3 61 C-2.29875 60.9175 -1.5975 60.835 -0.875 60.75 C2.73489415 59.80828848 5.08785384 58.3164799 8 56 C8.71447643 53.89667109 8.71447643 53.89667109 9 52 C9.99 51.67 10.98 51.34 12 51 C12.33 49.02 12.66 47.04 13 45 C13.66 45 14.32 45 15 45 C15.79529242 42.19199386 16.1282074 39.69270241 16.1328125 36.77734375 C16.13410156 35.99166016 16.13539063 35.20597656 16.13671875 34.39648438 C16.13285156 33.58501953 16.12898438 32.77355469 16.125 31.9375 C16.12886719 31.12216797 16.13273437 30.30683594 16.13671875 29.46679688 C16.13542969 28.68240234 16.13414062 27.89800781 16.1328125 27.08984375 C16.13112061 26.02044556 16.13112061 26.02044556 16.12939453 24.92944336 C16.06665285 22.77989196 16.06665285 22.77989196 15 20 C14.34 20 13.68 20 13 20 C12.855625 19.05125 12.71125 18.1025 12.5625 17.125 C12.17064601 14.1065506 12.17064601 14.1065506 11 12 C10.34 12 9.68 12 9 12 C8.505 10.515 8.505 10.515 8 9 C7.34 9 6.68 9 6 9 C5.505 7.515 5.505 7.515 5 6 C4.34 6 3.68 6 3 6 C3 5.34 3 4.68 3 4 C-8.26007976 -2.48395338 -24.52012304 -2.9869732 -35 5 Z " fill="#FDFEFA" transform="translate(163,73)"/>
<path d="M0 0 C6.6825 -0.020625 13.365 -0.04125 20.25 -0.0625 C22.35407227 -0.071604 24.45814453 -0.08070801 26.62597656 -0.09008789 C28.29752539 -0.09300907 29.96907494 -0.09555716 31.640625 -0.09765625 C32.5054248 -0.10277222 33.37022461 -0.10788818 34.26123047 -0.11315918 C35.09315918 -0.11328003 35.92508789 -0.11340088 36.78222656 -0.11352539 C37.86144379 -0.11685631 37.86144379 -0.11685631 38.96246338 -0.12025452 C41.08372224 0.00494125 42.95966287 0.42081435 45 1 C45 1.66 45 2.32 45 3 C45.721875 3.061875 46.44375 3.12375 47.1875 3.1875 C51.93205578 4.55814945 54.33669536 8.00504304 57 12 C57.1953125 15.13671875 57.1953125 15.13671875 57.125 18.6875 C57.10695313 19.86699219 57.08890625 21.04648438 57.0703125 22.26171875 C57.04710937 23.16535156 57.02390625 24.06898438 57 25 C56.34 25 55.68 25 55 25 C54.34 26.32 53.68 27.64 53 29 C51.68 29 50.36 29 49 29 C49 33.55133704 49.44404035 33.9061488 52.3125 37.125 C56.64787309 42.42573957 59 48.09977124 59 55 C53.39 55 47.78 55 42 55 C41.505 53.02 41.505 53.02 41 51 C40.34 51 39.68 51 39 51 C38.401875 49.948125 37.80375 48.89625 37.1875 47.8125 C36.82140625 47.17699219 36.4553125 46.54148438 36.078125 45.88671875 C35.17765043 44.31088825 34.30416973 42.71967231 33.4375 41.125 C32.11033963 38.69867251 32.11033963 38.69867251 29 38 C26.94106379 37.77674186 24.87766347 37.59294241 22.8125 37.4375 C21.72582031 37.35371094 20.63914062 37.26992187 19.51953125 37.18359375 C18.68808594 37.12300781 17.85664062 37.06242187 17 37 C17.01160156 38.21558594 17.02320313 39.43117187 17.03515625 40.68359375 C17.04453278 42.26822764 17.05363313 43.85286318 17.0625 45.4375 C17.07087891 46.23994141 17.07925781 47.04238281 17.08789062 47.86914062 C17.0965143 49.91295221 17.0522815 51.95683902 17 54 C16.67 54.33 16.34 54.66 16 55 C10.72 55 5.44 55 0 55 C0 36.85 0 18.7 0 0 Z " fill="#BED687" transform="translate(559,105)"/>
<path d="M0 0 C1.0209375 0.99 1.0209375 0.99 2.0625 2 C3.0525 2.66 4.0425 3.32 5.0625 4 C8.00269076 8.02341894 7.0625 10.40621615 7.0625 16 C1.4525 16 -4.1575 16 -9.9375 16 C-10.4325 14.515 -10.4325 14.515 -10.9375 13 C-11.5975 13 -12.2575 13 -12.9375 13 C-13.4325 12.01 -13.4325 12.01 -13.9375 11 C-17.21305608 10.52998967 -17.21305608 10.52998967 -21 10.375 C-22.93552734 10.26285156 -22.93552734 10.26285156 -24.91015625 10.1484375 C-26.40869141 10.07496094 -26.40869141 10.07496094 -27.9375 10 C-28.2675 11.65 -28.5975 13.3 -28.9375 15 C-25.84198285 17.0636781 -24.42603584 17.39452145 -20.83203125 17.8515625 C-19.84912109 17.98046875 -18.86621094 18.109375 -17.85351562 18.2421875 C-16.82935547 18.36851563 -15.80519531 18.49484375 -14.75 18.625 C-13.71423828 18.7590625 -12.67847656 18.893125 -11.61132812 19.03125 C-9.05419997 19.36120202 -6.49636203 19.68382514 -3.9375 20 C-3.9375 20.66 -3.9375 21.32 -3.9375 22 C-2.638125 22.0928125 -2.638125 22.0928125 -1.3125 22.1875 C3.0964294 23.24890893 4.83124726 24.84389268 8.0625 28 C9.99106245 33.78568734 9.36853964 39.39961801 7.0625 45 C4.5 46.25 4.5 46.25 2.0625 47 C1.7325 47.99 1.4025 48.98 1.0625 50 C-1.40625 50.9140625 -1.40625 50.9140625 -4.4375 51.625 C-7.98662374 52.23137716 -7.98662374 52.23137716 -10.9375 54 C-13.97089961 54.25228862 -17.01986053 54.18523613 -20.0625 54.1875 C-20.90554688 54.19974609 -21.74859375 54.21199219 -22.6171875 54.22460938 C-27.80512063 54.23669307 -32.02744523 53.68041315 -36.9375 52 C-37.9275 51.67 -38.9175 51.34 -39.9375 51 C-39.9375 50.34 -39.9375 49.68 -39.9375 49 C-40.865625 48.7525 -41.79375 48.505 -42.75 48.25 C-46.24178451 46.88067274 -47.09048414 46.16631291 -48.9375 43 C-49.23046875 40.421875 -49.23046875 40.421875 -49.125 37.75 C-49.09792969 36.85796875 -49.07085938 35.9659375 -49.04296875 35.046875 C-49.00816406 34.37140625 -48.97335937 33.6959375 -48.9375 33 C-45.61271742 31.89173914 -42.93744522 31.76238622 -39.4375 31.6875 C-38.2928125 31.65011719 -37.148125 31.61273438 -35.96875 31.57421875 C-32.9375 32 -32.9375 32 -31.03125 33.89453125 C-29.9375 36 -29.9375 36 -29.9375 38 C-23.6675 38.33 -17.3975 38.66 -10.9375 39 C-11.2675 37.35 -11.5975 35.7 -11.9375 34 C-13.21625 33.7525 -14.495 33.505 -15.8125 33.25 C-23.88402068 31.64036148 -31.9072402 29.8019973 -39.9375 28 C-39.9375 27.34 -39.9375 26.68 -39.9375 26 C-40.700625 25.95875 -41.46375 25.9175 -42.25 25.875 C-44.9375 25 -44.9375 25 -46.75 22.625 C-48.39479093 17.60405926 -48.96510816 13.21936229 -47.9375 8 C-44.68949389 2.15550522 -40.21729269 -1.05897317 -33.9375 -3 C-23.5747279 -5.08134885 -9.13377577 -6.21874095 0 0 Z " fill="#BED687" transform="translate(741.9375,108)"/>
<path d="M0 0 C1.20462891 0.01232666 1.20462891 0.01232666 2.43359375 0.02490234 C3.31273437 0.02876953 4.191875 0.03263672 5.09765625 0.03662109 C6.01289062 0.06111328 6.928125 0.08560547 7.87109375 0.11083984 C8.78632812 0.11212891 9.7015625 0.11341797 10.64453125 0.11474609 C17.44914863 0.2045431 17.44914863 0.2045431 20.87109375 2.48583984 C22.0390625 4.94677734 22.0390625 4.94677734 23.05859375 7.86083984 C23.40277344 8.81732422 23.74695313 9.77380859 24.1015625 10.75927734 C24.87109375 13.48583984 24.87109375 13.48583984 24.87109375 17.48583984 C25.53109375 17.48583984 26.19109375 17.48583984 26.87109375 17.48583984 C27.87878895 19.25230554 28.87701089 21.02417808 29.87109375 22.79833984 C30.42796875 23.78447266 30.98484375 24.77060547 31.55859375 25.78662109 C32.87109375 28.48583984 32.87109375 28.48583984 32.87109375 31.48583984 C33.53109375 31.48583984 34.19109375 31.48583984 34.87109375 31.48583984 C36.84051885 35.00267038 37.77574039 38.6198868 38.87109375 42.48583984 C39.37988342 43.86534172 39.90092499 45.2403814 40.43359375 46.61083984 C41.55658365 49.54657485 42.49050319 52.34596774 42.87109375 55.48583984 C40.77730383 57.57962976 36.37949343 56.67098413 33.49609375 56.67333984 C32.71492187 56.68558594 31.93375 56.69783203 31.12890625 56.71044922 C27.19473852 56.7205541 25.21516926 56.71522352 21.87109375 54.48583984 C21.37609375 51.02083984 21.37609375 51.02083984 20.87109375 47.48583984 C12.95109375 47.81583984 5.03109375 48.14583984 -3.12890625 48.48583984 C-4.44890625 51.12583984 -5.76890625 53.76583984 -7.12890625 56.48583984 C-13.06890625 56.48583984 -19.00890625 56.48583984 -25.12890625 56.48583984 C-25.45890625 54.83583984 -25.78890625 53.18583984 -26.12890625 51.48583984 C-25.46890625 51.48583984 -24.80890625 51.48583984 -24.12890625 51.48583984 C-24.12890625 50.16583984 -24.12890625 48.84583984 -24.12890625 47.48583984 C-23.46890625 47.48583984 -22.80890625 47.48583984 -22.12890625 47.48583984 C-21.90203125 46.18646484 -21.67515625 44.88708984 -21.44140625 43.54833984 C-20.45312882 39.01932744 -18.63757275 35.56554522 -16.29296875 31.60302734 C-14.68529841 28.67900947 -13.936018 25.71428686 -13.12890625 22.48583984 C-12.16219594 19.47453722 -11.14733114 16.48000903 -10.12890625 13.48583984 C-9.46890625 13.48583984 -8.80890625 13.48583984 -8.12890625 13.48583984 C-7.94714844 12.88255859 -7.76539063 12.27927734 -7.578125 11.65771484 C-7.32675781 10.85849609 -7.07539063 10.05927734 -6.81640625 9.23583984 C-6.57277344 8.44693359 -6.32914062 7.65802734 -6.078125 6.84521484 C-4.75414783 3.55434155 -3.65473541 0.83405086 0 0 Z " fill="#BED589" transform="translate(510.12890625,104.51416015625)"/>
<path d="M0 0 C5.61 0 11.22 0 17 0 C18.58230808 3.16461615 18.24157813 6.59079367 18.31640625 10.0703125 C18.33718735 10.86654022 18.35796844 11.66276794 18.37937927 12.48312378 C18.44484149 15.03032685 18.50374415 17.57763425 18.5625 20.125 C18.6056884 21.85027127 18.64930279 23.57553193 18.69335938 25.30078125 C18.80051945 29.53374685 18.90179623 33.76681753 19 38 C19.66 38 20.32 38 21 38 C21.41378906 38.48855469 21.82757812 38.97710937 22.25390625 39.48046875 C24.77179249 41.67164939 26.65203236 41.36529491 29.9375 41.3125 C30.97777344 41.30863281 32.01804687 41.30476563 33.08984375 41.30078125 C35.95502912 41.004648 37.51014363 40.3437267 40 39 C40.03758423 37.28115601 40.03758423 37.28115601 40.07592773 35.52758789 C40.16983106 31.29146402 40.27009275 27.05551072 40.37231445 22.81958008 C40.4157282 20.98335753 40.45739839 19.14709292 40.49731445 17.31079102 C40.55486169 14.67711689 40.61859998 12.04365579 40.68359375 9.41015625 C40.70030624 8.58411392 40.71701874 7.75807159 40.73423767 6.90699768 C40.88612829 1.11387171 40.88612829 1.11387171 42 0 C44.69654854 -0.07319621 47.36691458 -0.09242537 50.0625 -0.0625 C50.82111328 -0.05798828 51.57972656 -0.05347656 52.36132812 -0.04882812 C54.24091871 -0.0370068 56.12046899 -0.01907078 58 0 C59.51846568 3.03693136 59.18364205 6.20221068 59.203125 9.53515625 C59.20882507 10.28784286 59.21452515 11.04052948 59.22039795 11.81602478 C59.2298553 13.41403802 59.23638484 15.01207083 59.24023438 16.61010742 C59.24986597 19.02884286 59.28084963 21.44670117 59.3125 23.86523438 C59.43838595 41.70393203 59.43838595 41.70393203 54.24609375 48.19140625 C53.64925781 48.64386719 53.05242188 49.09632813 52.4375 49.5625 C51.83808594 50.03816406 51.23867188 50.51382813 50.62109375 51.00390625 C49 52 49 52 47 52 C47 52.66 47 53.32 47 54 C42.545 54.495 42.545 54.495 38 55 C38 55.66 38 56.32 38 57 C18.51685918 57.75662683 18.51685918 57.75662683 11 53 C10.05125 52.525625 9.1025 52.05125 8.125 51.5625 C5.54770686 49.66743152 4.36681384 47.87750281 3 45 C3 44.01 3 43.02 3 42 C2.34 42 1.68 42 1 42 C-0.3158809 38.0523573 -0.12300273 34.28910644 -0.09765625 30.17578125 C-0.09553383 28.88367989 -0.09553383 28.88367989 -0.09336853 27.56547546 C-0.0877714 24.81444831 -0.07521946 22.06350256 -0.0625 19.3125 C-0.05748463 17.4472668 -0.05292179 15.58203233 -0.04882812 13.71679688 C-0.03865384 9.14447466 -0.01907787 4.57232845 0 0 Z " fill="#BED588" transform="translate(626,105)"/>
<path d="M0 0 C7.52970132 -0.02464032 15.05937939 -0.04283141 22.58911133 -0.05493164 C25.15291757 -0.0599737 27.71672091 -0.06680714 30.28051758 -0.07543945 C33.95655021 -0.08751064 37.63254498 -0.09322942 41.30859375 -0.09765625 C42.46274277 -0.10281754 43.61689178 -0.10797882 44.80601501 -0.11329651 C46.3975515 -0.11340981 46.3975515 -0.11340981 48.02124023 -0.11352539 C48.96055893 -0.115746 49.89987762 -0.11796661 50.86766052 -0.12025452 C53 0 53 0 54 1 C55.1279669 11.506206 55.1279669 11.506206 51.6875 16.0625 C50.3571875 17.0215625 50.3571875 17.0215625 49 18 C48.443125 18.598125 47.88625 19.19625 47.3125 19.8125 C46 21 46 21 44 21 C43.34 22.65 42.68 24.3 42 26 C41.34 26 40.68 26 40 26 C39.505 27.485 39.505 27.485 39 29 C38.34 29 37.68 29 37 29 C36.505 30.485 36.505 30.485 36 32 C34.34928604 33.02611949 32.68029994 34.02308143 31 35 C30.278125 35.721875 29.55625 36.44375 28.8125 37.1875 C28.214375 37.785625 27.61625 38.38375 27 39 C26.34 39 25.68 39 25 39 C25 39.99 25 40.98 25 42 C26.30203369 41.98428955 26.30203369 41.98428955 27.63037109 41.96826172 C30.84699528 41.93420284 34.06352767 41.90911233 37.28027344 41.89013672 C38.67320781 41.88007123 40.06612102 41.86641766 41.45898438 41.84912109 C43.4595436 41.8248978 45.46025615 41.81459186 47.4609375 41.8046875 C49.26763916 41.78897705 49.26763916 41.78897705 51.11083984 41.77294922 C54 42 54 42 56 44 C56.23046875 46.34765625 56.23046875 46.34765625 56.1875 49.0625 C56.18105469 49.96097656 56.17460937 50.85945313 56.16796875 51.78515625 C56 54 56 54 55 55 C53.32274454 55.09874794 51.64134088 55.12798901 49.96118164 55.12939453 C48.3492971 55.13412277 48.3492971 55.13412277 46.70484924 55.13894653 C45.53510056 55.1369223 44.36535187 55.13489807 43.16015625 55.1328125 C41.96772812 55.13376923 40.77529999 55.13472595 39.54673767 55.13571167 C37.0188695 55.13639376 34.49099959 55.13453746 31.96313477 55.13037109 C28.08280517 55.12502796 24.20259157 55.13031273 20.32226562 55.13671875 C17.87239558 55.13605788 15.4225256 55.13477654 12.97265625 55.1328125 C11.80493179 55.13483673 10.63720734 55.13686096 9.43409729 55.13894653 C8.35635544 55.13579437 7.27861359 55.13264221 6.16821289 55.12939453 C5.21636612 55.12859894 4.26451935 55.12780334 3.28382874 55.12698364 C1 55 1 55 -1 54 C-1.62493425 44.0878485 -1.62493425 44.0878485 0.6875 40.0625 C3.05854282 37.94778613 5.51951236 35.98439011 8 34 C8.66 33.13375 9.32 32.2675 10 31.375 C12.25160725 28.70121639 13.82166047 28.27133581 17 27 C19.15449966 24.59855425 19.15449966 24.59855425 21 22 C21.98020375 20.9805881 22.97803008 19.97753644 24 19 C24.515625 18.443125 25.03125 17.88625 25.5625 17.3125 C27 16 27 16 29 16 C29 15.01 29 14.02 29 13 C19.43 13 9.86 13 0 13 C0 8.71 0 4.42 0 0 Z " fill="#BDD685" transform="translate(427,105)"/>
<path d="M0 0 C1.2684375 0.61875 1.2684375 0.61875 2.5625 1.25 C6.06992602 3.76815201 9.2271388 6.6837539 12 10 C12 10.66 12 11.32 12 12 C12.99 12 13.98 12 15 12 C15 13.32 15 14.64 15 16 C15.66 16 16.32 16 17 16 C19.01082649 24.95895015 20.70514536 35.01891742 18 44 C17.34 44 16.68 44 16 44 C15.9175 44.66 15.835 45.32 15.75 46 C14.74073023 50.03707907 12.93519598 53.31688508 11 57 C15.29 57 19.58 57 24 57 C23.01 55.68 22.02 54.36 21 53 C21 52.34 21 51.68 21 51 C20.34 51 19.68 51 19 51 C19 49.35 19 47.7 19 46 C26.2890898 44.08681157 32.54932699 43.95180646 40 45 C40 46.65 40 48.3 40 50 C38.515 50.495 38.515 50.495 37 51 C36.67 51.99 36.34 52.98 36 54 C35.01 54.495 35.01 54.495 34 55 C33.70053284 58.05456508 33.57433896 60.95370295 34 64 C36.27110728 66.85484511 36.27110728 66.85484511 39 69 C40.3125 71.3125 40.3125 71.3125 41 73 C41.66 73 42.32 73 43 73 C43.33 74.32 43.66 75.64 44 77 C44.66 77 45.32 77 46 77 C47.5225746 82.44133218 48.13514404 88.07029215 46.05859375 93.4296875 C44.85437626 95.55122428 43.7344091 97.28434127 42 99 C39.1875 99.5 39.1875 99.5 37 99 C37.99 98.67 38.98 98.34 40 98 C40.495 96.515 40.495 96.515 41 95 C41.66 95 42.32 95 43 95 C43.69508823 88.48755792 44.31909709 82.4489191 43 76 C42.34 76 41.68 76 41 76 C38 72.53846154 38 72.53846154 38 70 C37.1028125 70.309375 37.1028125 70.309375 36.1875 70.625 C34 71 34 71 31 69 C29.515 69.495 29.515 69.495 28 70 C27.875 65.25 27.875 65.25 29 63 C29.039992 61.00039988 29.04346799 58.99952758 29 57 C29.66 57 30.32 57 31 57 C31 56.01 31 55.02 31 54 C29.35 54.33 27.7 54.66 26 55 C26.33 55.33 26.66 55.66 27 56 C27.07244053 58.01964199 27.08377188 60.04167124 27.0625 62.0625 C27.05347656 63.16722656 27.04445313 64.27195312 27.03515625 65.41015625 C27.02355469 66.26480469 27.01195312 67.11945313 27 68 C25.3603125 68.5878125 25.3603125 68.5878125 23.6875 69.1875 C20.04877046 70.71341884 18.81300048 72.46942012 17 76 C16.34 76 15.68 76 15 76 C14.505 77.98 14.505 77.98 14 80 C13.34 80 12.68 80 12 80 C12.33 78.02 12.66 76.04 13 74 C13.66 74 14.32 74 15 74 C15.66 72.35 16.32 70.7 17 69 C10.07 69.99 10.07 69.99 3 71 C3 71.66 3 72.32 3 73 C2.01 73 1.02 73 0 73 C-0.12117188 74.21816406 -0.24234375 75.43632812 -0.3671875 76.69140625 C-0.53613072 78.31513829 -0.70541996 79.93883435 -0.875 81.5625 C-0.95363281 82.36236328 -1.03226563 83.16222656 -1.11328125 83.98632812 C-1.62995403 88.85497552 -2.53389593 93.30731257 -4 98 C-4.34179442 99.41464912 -4.67696419 100.83094982 -5 102.25 C-6 106 -6 106 -8 109 C-8.66 109 -9.32 109 -10 109 C-10.0825 109.7425 -10.165 110.485 -10.25 111.25 C-11.14809799 114.54302595 -12.38416074 115.85976788 -15 118 C-15.66 118 -16.32 118 -17 118 C-16.98839844 118.71027344 -16.97679687 119.42054688 -16.96484375 120.15234375 C-16.95582031 121.07144531 -16.94679687 121.99054688 -16.9375 122.9375 C-16.92589844 123.85402344 -16.91429687 124.77054687 -16.90234375 125.71484375 C-17 128 -17 128 -18 129 C-20.75 129.3125 -20.75 129.3125 -24 129 C-25.11375 128.0409375 -25.11375 128.0409375 -26.25 127.0625 C-30.22467769 124.08149174 -34.14516142 124.18853742 -39 124 C-39.75 120.8125 -39.75 120.8125 -40 117 C-39.01 115.824375 -39.01 115.824375 -38 114.625 C-35.70484598 111.61261035 -35.78243268 111.03614156 -36.1875 107.4375 C-36.52140488 105.32032291 -36.91141682 103.2978299 -37.52246094 101.2434082 C-38.12221955 98.42583053 -38.11177777 95.80266584 -38.09765625 92.921875 C-38.09443359 91.76171875 -38.09121094 90.6015625 -38.08789062 89.40625 C-38.07951172 88.1996875 -38.07113281 86.993125 -38.0625 85.75 C-38.05798828 84.52796875 -38.05347656 83.3059375 -38.04882812 82.046875 C-38.03704815 79.03120054 -38.02059853 76.01562502 -38 73 C-39.32 73 -40.64 73 -42 73 C-42.33 73.99 -42.66 74.98 -43 76 C-44.4375 77.6875 -44.4375 77.6875 -46 79 C-46.66 79 -47.32 79 -48 79 C-48.33 80.32 -48.66 81.64 -49 83 C-50.65 83 -52.3 83 -54 83 C-54.34553378 77.24110366 -54.36702695 72.93830619 -51 68 C-49.09071228 66.07543798 -47.21645176 64.60339064 -45 63 C-44.34 63 -43.68 63 -43 63 C-43 62.34 -43 61.68 -43 61 C-41.515 60.505 -41.515 60.505 -40 60 C-40 59.34 -40 58.68 -40 58 C-40.66 57.67 -41.32 57.34 -42 57 C-42 56.34 -42 55.68 -42 55 C-42.66 55 -43.32 55 -44 55 C-44.79423861 53.43880578 -45.58527123 51.87598036 -46.375 50.3125 C-47.03628906 49.00732422 -47.03628906 49.00732422 -47.7109375 47.67578125 C-51.99915757 38.77447594 -52.69104326 29.07513606 -49.5 19.5625 C-49.005 18.386875 -48.51 17.21125 -48 16 C-47.34 16 -46.68 16 -46 16 C-45.938125 15.0925 -45.87625 14.185 -45.8125 13.25 C-44.8092713 9.23708521 -43.43590857 8.17886885 -40 6 C-39.34 6 -38.68 6 -38 6 C-38 5.34 -38 4.68 -38 4 C-29.69546296 -5.94977551 -10.56097742 -5.48358443 0 0 Z M-35 5 C-35.99 5.41765625 -35.99 5.41765625 -37 5.84375 C-42.53259943 9.04228405 -46.56470937 17.77357614 -48.5703125 23.765625 C-50.16310102 32.0481253 -49.84497004 40.45330423 -45.30859375 47.703125 C-44.69113281 48.54359375 -44.07367188 49.3840625 -43.4375 50.25 C-40.05298013 54.89403974 -40.05298013 54.89403974 -39 57 C-38.01 57.33 -37.02 57.66 -36 58 C-35.67 58.66 -35.34 59.32 -35 60 C-28.72924337 63.90370344 -22.85709091 64.55500677 -15.625 64.3125 C-14.73683594 64.30283203 -13.84867188 64.29316406 -12.93359375 64.28320312 C-9.32562684 64.22043214 -6.44685864 64.14895288 -3 63 C-3 62.34 -3 61.68 -3 61 C-2.29875 60.9175 -1.5975 60.835 -0.875 60.75 C2.73489415 59.80828848 5.08785384 58.3164799 8 56 C8.71447643 53.89667109 8.71447643 53.89667109 9 52 C9.99 51.67 10.98 51.34 12 51 C12.33 49.02 12.66 47.04 13 45 C13.66 45 14.32 45 15 45 C15.79529242 42.19199386 16.1282074 39.69270241 16.1328125 36.77734375 C16.13410156 35.99166016 16.13539063 35.20597656 16.13671875 34.39648438 C16.13285156 33.58501953 16.12898438 32.77355469 16.125 31.9375 C16.12886719 31.12216797 16.13273437 30.30683594 16.13671875 29.46679688 C16.13542969 28.68240234 16.13414062 27.89800781 16.1328125 27.08984375 C16.13112061 26.02044556 16.13112061 26.02044556 16.12939453 24.92944336 C16.06665285 22.77989196 16.06665285 22.77989196 15 20 C14.34 20 13.68 20 13 20 C12.855625 19.05125 12.71125 18.1025 12.5625 17.125 C12.17064601 14.1065506 12.17064601 14.1065506 11 12 C10.34 12 9.68 12 9 12 C8.505 10.515 8.505 10.515 8 9 C7.34 9 6.68 9 6 9 C5.505 7.515 5.505 7.515 5 6 C4.34 6 3.68 6 3 6 C3 5.34 3 4.68 3 4 C-8.26007976 -2.48395338 -24.52012304 -2.9869732 -35 5 Z M-6 65 C-11.26156659 67.6307833 -20.9100539 66.75967001 -26.58984375 65.36328125 C-28.41326578 64.62308023 -30.20845858 63.81433701 -32 63 C-36.41212841 61.85893231 -38.12275815 61.53557784 -42.1875 63.6875 C-44.63167566 65.69715555 -46.92785198 67.60905998 -49 70 C-49 70.66 -49 71.32 -49 72 C-49.66 72 -50.32 72 -51 72 C-52.1577506 75.47325181 -52.06866652 78.36067448 -52 82 C-51.67 81.34 -51.34 80.68 -51 80 C-50.34 80 -49.68 80 -49 80 C-48.67 79.01 -48.34 78.02 -48 77 C-46.00334402 75.32932867 -44.00348966 73.66247014 -42 72 C-42 71.34 -42 70.68 -42 70 C-40.02 70 -38.04 70 -36 70 C-36 78.25 -36 86.5 -36 95 C-35.34 95 -34.68 95 -34 95 C-34.01160156 95.7734375 -34.02320313 96.546875 -34.03515625 97.34375 C-34.08709845 103.33936364 -33.91184156 109.07302983 -33 115 C-33.99 115 -34.98 115 -36 115 C-36 115.66 -36 116.32 -36 117 C-36.66 117 -37.32 117 -38 117 C-38 118.65 -38 120.3 -38 122 C-36.35 122 -34.7 122 -33 122 C-32.67 120.68 -32.34 119.36 -32 118 C-31.34 118 -30.68 118 -30 118 C-29.7525 118.556875 -29.505 119.11375 -29.25 119.6875 C-27.74989321 122.46269757 -26.16884385 124.7035771 -24 127 C-22.68 127 -21.36 127 -20 127 C-19.67287658 120.86946489 -19.60633122 116.37330889 -23 111 C-22.01 111 -21.02 111 -20 111 C-20 112.65 -20 114.3 -20 116 C-16.15328527 116.41188103 -16.15328527 116.41188103 -14.25 114.625 C-12.79676308 113.07748408 -12.79676308 113.07748408 -13 111 C-12.34 111 -11.68 111 -11 111 C-10.80664062 110.33613281 -10.61328125 109.67226562 -10.4140625 108.98828125 C-8.18720749 101.43681747 -8.18720749 101.43681747 -6.875 98.375 C-5.85346376 95.60225877 -5.58759721 92.89936621 -5.28125 89.97265625 C-4.88515482 87.1944887 -3.88607896 84.65823689 -3 82 C-2.83215762 80.60664183 -2.68726471 79.21037404 -2.5625 77.8125 C-2 74 -2 74 -0.875 72.1875 C4.46367422 68.80633966 10.35428283 67.24286305 16.4375 65.8125 C17.16904297 65.63525391 17.90058594 65.45800781 18.65429688 65.27539062 C20.43488415 64.84479109 22.21726226 64.42160784 24 64 C24.33 62.68 24.66 61.36 25 60 C8.89589176 59.6760812 8.89589176 59.6760812 -6 65 Z " fill="#D6DFB9" transform="translate(163,73)"/>
<path d="M0 0 C1.93166016 0.01740234 1.93166016 0.01740234 3.90234375 0.03515625 C5.19269531 0.04417969 6.48304688 0.05320312 7.8125 0.0625 C8.81152344 0.07410156 9.81054688 0.08570312 10.83984375 0.09765625 C12.50562 3.42920876 11.95992231 7.16301684 11.9375 10.82421875 C11.93608505 11.68703461 11.9346701 12.54985046 11.93321228 13.43881226 C11.92760563 16.20012855 11.91505202 18.96136437 11.90234375 21.72265625 C11.89732961 23.59244675 11.89276655 25.46223851 11.88867188 27.33203125 C11.87763404 31.92060402 11.86036495 36.50911648 11.83984375 41.09765625 C12.79874512 41.09241943 13.75764648 41.08718262 14.74560547 41.08178711 C18.29767934 41.06370946 21.84974912 41.0522141 25.40185547 41.04272461 C26.94027388 41.03769073 28.4786875 41.03086317 30.01708984 41.0222168 C32.22624901 41.01010986 34.43534501 41.00441856 36.64453125 41 C37.6789888 40.99225807 37.6789888 40.99225807 38.73434448 40.98435974 C43.61210034 40.98378454 43.61210034 40.98378454 45.83984375 42.09765625 C45.83984375 45.72765625 45.83984375 49.35765625 45.83984375 53.09765625 C43.4515534 54.29180142 41.97941043 54.22448832 39.31420898 54.22705078 C38.3766124 54.23020294 37.43901581 54.2333551 36.4730072 54.23660278 C34.9510952 54.23356644 34.9510952 54.23356644 33.3984375 54.23046875 C32.36042496 54.23142548 31.32241241 54.2323822 30.25294495 54.23336792 C28.05640604 54.23404917 25.85986513 54.23219869 23.66333008 54.22802734 C20.28787755 54.22267296 16.91255777 54.22797698 13.53710938 54.234375 C11.40755179 54.23371432 9.27799428 54.23243335 7.1484375 54.23046875 C5.62348915 54.2335051 5.62348915 54.2335051 4.06773376 54.23660278 C3.13328934 54.23345062 2.19884491 54.23029846 1.23608398 54.22705078 C0.40938705 54.22625519 -0.41730988 54.22545959 -1.26905823 54.22463989 C-3.16015625 54.09765625 -3.16015625 54.09765625 -4.16015625 53.09765625 C-4.25877223 51.47638202 -4.28814392 49.85083257 -4.28955078 48.2265625 C-4.29270294 47.18878662 -4.2958551 46.15101074 -4.29910278 45.08178711 C-4.29707855 43.95264893 -4.29505432 42.82351074 -4.29296875 41.66015625 C-4.29440384 39.93454468 -4.29440384 39.93454468 -4.29586792 38.17407227 C-4.29654994 35.73616481 -4.29469415 33.29825555 -4.29052734 30.86035156 C-4.28517942 27.11389107 -4.29047164 23.36755048 -4.296875 19.62109375 C-4.29621422 17.25911432 -4.29493307 14.89713496 -4.29296875 12.53515625 C-4.29499298 11.40601807 -4.29701721 10.27687988 -4.29910278 9.11352539 C-4.29595062 8.07574951 -4.29279846 7.03797363 -4.28955078 5.96875 C-4.28875519 5.0502124 -4.28795959 4.1316748 -4.28713989 3.18530273 C-4.07894712 -0.23744453 -3.51670238 0.10867436 0 0 Z " fill="#BDD686" transform="translate(310.16015625,105.90234375)"/>
<path d="M0 0 C1.2065625 0.0309375 1.2065625 0.0309375 2.4375 0.0625 C2.4375 1.0525 2.4375 2.0425 2.4375 3.0625 C1.7775 3.0625 1.1175 3.0625 0.4375 3.0625 C0.4375 5.0425 0.4375 7.0225 0.4375 9.0625 C1.0975 9.3925 1.7575 9.7225 2.4375 10.0625 C1.4475 10.5575 1.4475 10.5575 0.4375 11.0625 C-0.21805119 13.58983235 -0.21805119 13.58983235 -0.5625 16.0625 C0.0975 16.0625 0.7575 16.0625 1.4375 16.0625 C1.7675 15.4025 2.0975 14.7425 2.4375 14.0625 C3.22125 14.3925 4.005 14.7225 4.8125 15.0625 C7.28082497 16.18116511 7.28082497 16.18116511 9.4375 16.0625 C12.4375 19.52403846 12.4375 19.52403846 12.4375 22.0625 C13.0975 22.0625 13.7575 22.0625 14.4375 22.0625 C16.59683572 27.90540842 16.88044018 32.96092437 15.4375 39.0625 C13.5625 42.1875 13.5625 42.1875 11.4375 44.0625 C10.4475 44.0625 9.4575 44.0625 8.4375 44.0625 C8.4375 45.0525 8.4375 46.0425 8.4375 47.0625 C0.33960517 48.72360663 -6.17269076 48.90520081 -13.5625 45.0625 C-14.5525 44.4025 -15.5425 43.7425 -16.5625 43.0625 C-16.5625 42.0725 -16.5625 41.0825 -16.5625 40.0625 C-17.2225 40.0625 -17.8825 40.0625 -18.5625 40.0625 C-19.31862577 34.82778314 -19.7688366 30.28995859 -18.5625 25.0625 C-17.2425 25.3925 -15.9225 25.7225 -14.5625 26.0625 C-14.2325 24.7425 -13.9025 23.4225 -13.5625 22.0625 C-12.9025 22.0625 -12.2425 22.0625 -11.5625 22.0625 C-11.27375 21.27875 -10.985 20.495 -10.6875 19.6875 C-9.5625 17.0625 -9.5625 17.0625 -7.5625 15.0625 C-5.57428687 14.66485737 -3.57305661 14.32474651 -1.5625 14.0625 C-1.5625 10.1025 -1.5625 6.1425 -1.5625 2.0625 C-2.2225 1.7325 -2.8825 1.4025 -3.5625 1.0625 C-2.5625 0.0625 -2.5625 0.0625 0 0 Z " fill="#FCFDF8" transform="translate(191.5625,126.9375)"/>
<path d="M0 0 C1.65 0 3.3 0 5 0 C6.26349222 2.52698444 6.12584977 4.2638703 6.12698364 7.09315491 C6.12980347 8.17147079 6.13262329 9.24978668 6.13552856 10.36077881 C6.13350433 11.54891174 6.1314801 12.73704468 6.12939453 13.96118164 C6.13114685 15.20832443 6.13289917 16.45546722 6.13470459 17.74040222 C6.13835904 21.16588269 6.13749217 24.591303 6.1343255 28.01678014 C6.1317991 31.59577724 6.13414018 35.17477172 6.13571167 38.75376892 C6.13753231 44.76366642 6.13512958 50.77355163 6.13037109 56.78344727 C6.1249262 63.74079911 6.1266932 70.69812167 6.1321975 77.65547282 C6.13672869 83.62066241 6.13737922 89.58584316 6.13475883 95.55103391 C6.13319641 99.11746828 6.13300139 102.68388885 6.13629532 106.25032234 C6.13970799 110.2229642 6.13498421 114.19557298 6.12939453 118.16821289 C6.13141876 119.35837006 6.13344299 120.54852722 6.13552856 121.77474976 C6.13270874 122.85024582 6.12988892 123.92574188 6.12698364 125.03382874 C6.12660662 125.97422532 6.12622959 126.91462191 6.12584114 127.88351536 C6 130 6 130 5 131 C3.35 131 1.7 131 0 131 C0 87.77 0 44.54 0 0 Z " fill="#CADAA2" transform="translate(267,70)"/>
<path d="M0 0 C0 1.65 0 3.3 0 5 C-0.99 5.33 -1.98 5.66 -3 6 C-3.33 6.99 -3.66 7.98 -4 9 C-4.99 9.495 -4.99 9.495 -6 10 C-6.29946716 13.05456508 -6.42566104 15.95370295 -6 19 C-3.72889272 21.85484511 -3.72889272 21.85484511 -1 24 C0.3125 26.3125 0.3125 26.3125 1 28 C1.66 28 2.32 28 3 28 C3.495 29.98 3.495 29.98 4 32 C4.66 32 5.32 32 6 32 C7.5225746 37.44133218 8.13514404 43.07029215 6.05859375 48.4296875 C4.85437626 50.55122428 3.7344091 52.28434127 2 54 C-0.8125 54.5 -0.8125 54.5 -3 54 C-2.01 53.67 -1.02 53.34 0 53 C0.33 52.01 0.66 51.02 1 50 C1.66 50 2.32 50 3 50 C3.69508823 43.48755792 4.31909709 37.4489191 3 31 C2.34 31 1.68 31 1 31 C-2 27.53846154 -2 27.53846154 -2 25 C-2.598125 25.20625 -3.19625 25.4125 -3.8125 25.625 C-6 26 -6 26 -9 24 C-9.99 24.33 -10.98 24.66 -12 25 C-12.125 20.25 -12.125 20.25 -11 18 C-10.960008 16.00039988 -10.95653201 13.99952758 -11 12 C-10.34 12 -9.68 12 -9 12 C-9 11.01 -9 10.02 -9 9 C-10.65 9.33 -12.3 9.66 -14 10 C-13.67 10.33 -13.34 10.66 -13 11 C-12.92755947 13.01964199 -12.91622812 15.04167124 -12.9375 17.0625 C-12.94652344 18.16722656 -12.95554688 19.27195313 -12.96484375 20.41015625 C-12.97644531 21.26480469 -12.98804688 22.11945313 -13 23 C-14.093125 23.391875 -15.18625 23.78375 -16.3125 24.1875 C-19.95122954 25.71341884 -21.18699952 27.46942012 -23 31 C-23.66 31 -24.32 31 -25 31 C-25.33 32.32 -25.66 33.64 -26 35 C-26.66 35 -27.32 35 -28 35 C-27.505 32.03 -27.505 32.03 -27 29 C-26.34 29 -25.68 29 -25 29 C-24.34 27.35 -23.68 25.7 -23 24 C-26.96 24.33 -30.92 24.66 -35 25 C-31.89719658 21.89719658 -30.70883938 21.3698228 -26.625 20.3125 C-25.68914062 20.06113281 -24.75328125 19.80976563 -23.7890625 19.55078125 C-21.10828866 19.02138474 -18.72330511 18.89601926 -16 19 C-16 18.01 -16 17.02 -16 16 C-16.97582031 16.01160156 -17.95164063 16.02320313 -18.95703125 16.03515625 C-20.22933594 16.04417969 -21.50164062 16.05320313 -22.8125 16.0625 C-24.70935547 16.07990234 -24.70935547 16.07990234 -26.64453125 16.09765625 C-30 16 -30 16 -33 15 C-32.67 14.01 -32.34 13.02 -32 12 C-26.72 12 -21.44 12 -16 12 C-16.99 10.68 -17.98 9.36 -19 8 C-19 7.34 -19 6.68 -19 6 C-19.66 6 -20.32 6 -21 6 C-21 4.35 -21 2.7 -21 1 C-13.7109102 -0.91318843 -7.45067301 -1.04819354 0 0 Z " fill="#E4E9D1" transform="translate(203,118)"/>
<path d="M0 0 C-2 1 -2 1 -4.3125 1.375 C-7.34055863 2.07919968 -9.38507224 3.34846668 -12 5 C-12.99 5.33 -13.98 5.66 -15 6 C-15.73323796 8.01508358 -15.73323796 8.01508358 -16 10 C-16.66 10 -17.32 10 -18 10 C-18 12.64 -18 15.28 -18 18 C-17.34 18 -16.68 18 -16 18 C-15.67 16.68 -15.34 15.36 -15 14 C-14.34 14 -13.68 14 -13 14 C-12.67 13.01 -12.34 12.02 -12 11 C-10.8125 9.3125 -10.8125 9.3125 -9 8 C-7.02 8 -5.04 8 -3 8 C-3 16.25 -3 24.5 -3 33 C-2.34 33 -1.68 33 -1 33 C-0.66304138 35.72876308 -0.33031571 38.45793163 0 41.1875 C0.09539062 41.95642578 0.19078125 42.72535156 0.2890625 43.51757812 C0.75192894 47.36928811 1.12467468 51.11170851 1 55 C0.67 54.34 0.34 53.68 0 53 C-0.99 53 -1.98 53 -3 53 C-3 53.66 -3 54.32 -3 55 C-3.66 55 -4.32 55 -5 55 C-5 56.65 -5 58.3 -5 60 C-2.525 59.505 -2.525 59.505 0 59 C0.33 58.01 0.66 57.02 1 56 C1.66 56 2.32 56 3 56 C4.57640517 57.97726249 5.95456984 60.05560498 7.3671875 62.15234375 C9.21439265 64.24260221 10.28155477 64.62930292 13 65 C12.88557539 63.39504433 12.75805306 61.79101881 12.625 60.1875 C12.55539063 59.29417969 12.48578125 58.40085938 12.4140625 57.48046875 C12.13354964 54.75601501 12.13354964 54.75601501 10 52 C10 51.01 10 50.02 10 49 C10.99 49 11.98 49 13 49 C13.495 51.475 13.495 51.475 14 54 C16.475 53.505 16.475 53.505 19 53 C19.33 51.68 19.66 50.36 20 49 C20.66 49 21.32 49 22 49 C22.18175781 48.00419922 22.18175781 48.00419922 22.3671875 46.98828125 C23.78011318 39.5432498 23.78011318 39.5432498 25.0625 36.375 C26.15709728 33.60202022 26.40995344 30.92276625 26.71875 27.97265625 C27.11484518 25.1944887 28.11392104 22.65823689 29 20 C29.14425703 18.62688678 29.26833059 17.25154337 29.375 15.875 C30 12 30 12 31.8125 9.4375 C34 8 34 8 36.25 8.25 C36.8275 8.4975 37.405 8.745 38 9 C37.34 9 36.68 9 36 9 C36 9.66 36 10.32 36 11 C35.01 11 34.02 11 33 11 C32.81824219 12.82724609 32.81824219 12.82724609 32.6328125 14.69140625 C32.46386928 16.31513829 32.29458004 17.93883435 32.125 19.5625 C32.04636719 20.36236328 31.96773437 21.16222656 31.88671875 21.98632812 C31.37004597 26.85497552 30.46610407 31.30731257 29 36 C28.65820558 37.41464912 28.32303581 38.83094982 28 40.25 C27 44 27 44 25 47 C24.34 47 23.68 47 23 47 C22.9175 47.7425 22.835 48.485 22.75 49.25 C21.85190201 52.54302595 20.61583926 53.85976788 18 56 C17.34 56 16.68 56 16 56 C16.01160156 56.71027344 16.02320313 57.42054688 16.03515625 58.15234375 C16.04417969 59.07144531 16.05320313 59.99054688 16.0625 60.9375 C16.07410156 61.85402344 16.08570313 62.77054687 16.09765625 63.71484375 C16 66 16 66 15 67 C12.25 67.3125 12.25 67.3125 9 67 C7.88625 66.0409375 7.88625 66.0409375 6.75 65.0625 C2.77532231 62.08149174 -1.14516142 62.18853742 -6 62 C-6.75 58.8125 -6.75 58.8125 -7 55 C-6.34 54.21625 -5.68 53.4325 -5 52.625 C-2.70484598 49.61261035 -2.78243268 49.03614156 -3.1875 45.4375 C-3.52140488 43.32032291 -3.91141682 41.2978299 -4.52246094 39.2434082 C-5.12221955 36.42583053 -5.11177777 33.80266584 -5.09765625 30.921875 C-5.09443359 29.76171875 -5.09121094 28.6015625 -5.08789062 27.40625 C-5.07951172 26.1996875 -5.07113281 24.993125 -5.0625 23.75 C-5.05798828 22.52796875 -5.05347656 21.3059375 -5.04882812 20.046875 C-5.03704815 17.03120054 -5.02059853 14.01562502 -5 11 C-6.32 11 -7.64 11 -9 11 C-9.33 11.99 -9.66 12.98 -10 14 C-11.4375 15.6875 -11.4375 15.6875 -13 17 C-13.66 17 -14.32 17 -15 17 C-15.33 18.32 -15.66 19.64 -16 21 C-17.65 21 -19.3 21 -21 21 C-21.34553378 15.24110366 -21.36702695 10.93830619 -18 6 C-16.09071228 4.07543798 -14.21645176 2.60339064 -12 1 C-11.34 1 -10.68 1 -10 1 C-10 0.34 -10 -0.32 -10 -1 C-6.06329512 -2.31223496 -3.87511856 -1.24296256 0 0 Z " fill="#D7DEC1" transform="translate(130,135)"/>
<path d="M0 0 C1.58206057 0.00667536 3.16410534 0.0186375 4.74609375 0.03515625 C5.55240234 0.03966797 6.35871094 0.04417969 7.18945312 0.04882812 C9.18753131 0.06065107 11.18557158 0.07858711 13.18359375 0.09765625 C14.87555879 3.48158633 14.30345924 7.32243416 14.28125 11.04296875 C14.27983505 11.92798065 14.2784201 12.81299255 14.27696228 13.724823 C14.27135515 16.55746816 14.25880146 19.39003489 14.24609375 22.22265625 C14.24107967 24.14062386 14.2365166 26.05859271 14.23242188 27.9765625 C14.22138341 32.68362407 14.204114 37.39062685 14.18359375 42.09765625 C13.52359375 42.09765625 12.86359375 42.09765625 12.18359375 42.09765625 C11.85359375 28.56765625 11.52359375 15.03765625 11.18359375 1.09765625 C6.56359375 1.42765625 1.94359375 1.75765625 -2.81640625 2.09765625 C-2.81640625 19.25765625 -2.81640625 36.41765625 -2.81640625 54.09765625 C13.35359375 54.09765625 29.52359375 54.09765625 46.18359375 54.09765625 C47.17359375 50.79765625 48.16359375 47.49765625 49.18359375 44.09765625 C50.17359375 43.10765625 51.16359375 42.11765625 52.18359375 41.09765625 C51.04635315 45.8232774 49.59116777 50.4465421 48.18359375 55.09765625 C53.46359375 55.09765625 58.74359375 55.09765625 64.18359375 55.09765625 C64.18359375 55.42765625 64.18359375 55.75765625 64.18359375 56.09765625 C41.41359375 56.09765625 18.64359375 56.09765625 -4.81640625 56.09765625 C-4.83703125 47.04328125 -4.85765625 37.98890625 -4.87890625 28.66015625 C-4.89256226 24.36673218 -4.89256226 24.36673218 -4.90649414 19.98657227 C-4.90941307 17.73323616 -4.91196168 15.47989952 -4.9140625 13.2265625 C-4.91917847 12.04412964 -4.92429443 10.86169678 -4.92956543 9.64343262 C-4.92968628 8.52690308 -4.92980713 7.41037354 -4.92993164 6.26000977 C-4.93215225 5.28516129 -4.93437286 4.31031281 -4.93666077 3.30592346 C-4.7286931 -0.51304473 -4.02116582 0.10289575 0 0 Z " fill="#DEE9C7" transform="translate(309.81640625,104.90234375)"/>
<path d="M0 0 C2.93774463 -0.05390357 5.87450232 -0.0936255 8.8125 -0.125 C10.06256836 -0.15013672 10.06256836 -0.15013672 11.33789062 -0.17578125 C12.14033203 -0.18222656 12.94277344 -0.18867187 13.76953125 -0.1953125 C14.50792236 -0.20578613 15.24631348 -0.21625977 16.00708008 -0.22705078 C18 0 18 0 21 2 C21.1875 5.625 21.1875 5.625 21 9 C17.02389214 11.71486934 12.86098023 11.22440753 8.25 11.125 C7.45722656 11.11597656 6.66445313 11.10695312 5.84765625 11.09765625 C3.89830719 11.07417012 1.94911425 11.03830137 0 11 C0 7.37 0 3.74 0 0 Z " fill="#F8FBEF" transform="translate(576,118)"/>
<path d="M0 0 C4.62 0 9.24 0 14 0 C14.33 0.99 14.66 1.98 15 3 C15.66 3 16.32 3 17 3 C17.33 3.66 17.66 4.32 18 5 C20.54941373 5.31241371 23.00361513 5.51303421 25.5625 5.625 C26.27341797 5.66367188 26.98433594 5.70234375 27.71679688 5.7421875 C29.47742425 5.83671783 31.23867728 5.91945817 33 6 C33 6.33 33 6.66 33 7 C28.38 7 23.76 7 19 7 C19 7.66 19 8.32 19 9 C19.928125 8.938125 20.85625 8.87625 21.8125 8.8125 C25 9 25 9 26.875 10.5 C27.24625 10.995 27.6175 11.49 28 12 C26.68 12 25.36 12 24 12 C24 11.34 24 10.68 24 10 C23.0821875 9.93941406 22.164375 9.87882812 21.21875 9.81640625 C17.47774446 9.56098045 13.73882883 9.28543747 10 9 C9.15179687 8.93941406 8.30359375 8.87882812 7.4296875 8.81640625 C3.45678844 8.44630729 0.91747424 7.79591281 -2 5 C-1.34 3.35 -0.68 1.7 0 0 Z " fill="#F5FAEB" transform="translate(714,118)"/>
<path d="M0 0 C1.65 0.33 3.3 0.66 5 1 C5.20496094 1.63808594 5.40992188 2.27617188 5.62109375 2.93359375 C5.89050781 3.75988281 6.15992188 4.58617188 6.4375 5.4375 C6.70433594 6.26121094 6.97117187 7.08492187 7.24609375 7.93359375 C7.82155494 9.96219588 7.82155494 9.96219588 9 11 C9 12.65 9 14.3 9 16 C4.71 16 0.42 16 -4 16 C-2.96168893 10.51178434 -1.93581306 5.25434973 0 0 Z " fill="#F0F6E0" transform="translate(388,123)"/>
<path d="M0 0 C7.52970132 -0.02464032 15.05937939 -0.04283141 22.58911133 -0.05493164 C25.15291757 -0.0599737 27.71672091 -0.06680714 30.28051758 -0.07543945 C33.95655021 -0.08751064 37.63254498 -0.09322942 41.30859375 -0.09765625 C42.46274277 -0.10281754 43.61689178 -0.10797882 44.80601501 -0.11329651 C46.3975515 -0.11340981 46.3975515 -0.11340981 48.02124023 -0.11352539 C48.96055893 -0.115746 49.89987762 -0.11796661 50.86766052 -0.12025452 C53 0 53 0 54 1 C54.07244053 3.01964199 54.08377188 5.04167124 54.0625 7.0625 C54.05347656 8.16722656 54.04445313 9.27195312 54.03515625 10.41015625 C54.02355469 11.26480469 54.01195312 12.11945313 54 13 C53.67 13 53.34 13 53 13 C52.505 7.555 52.505 7.555 52 2 C35.83 2 19.66 2 3 2 C2.67 5.3 2.34 8.6 2 12 C11.24 12 20.48 12 30 12 C30.33 13.32 30.66 14.64 31 16 C29.5625 17.75 29.5625 17.75 28 19 C27.34 18.67 26.68 18.34 26 18 C26.33 17.34 26.66 16.68 27 16 C27.66 16 28.32 16 29 16 C29 15.01 29 14.02 29 13 C19.43 13 9.86 13 0 13 C0 8.71 0 4.42 0 0 Z " fill="#C3D59A" transform="translate(427,105)"/>
<path d="M0 0 C0.99 0 1.98 0 3 0 C3.83986084 1.93467942 4.67168027 3.87285129 5.5 5.8125 C5.9640625 6.89144531 6.428125 7.97039062 6.90625 9.08203125 C8 12 8 12 8 15 C3.71 15 -0.58 15 -5 15 C-4.5188509 9.22621075 -2.81532819 5.04140164 0 0 Z " fill="#F7FBEF" transform="translate(517,124)"/>
<path d="M0 0 C0 1.32 0 2.64 0 4 C0.99 4 1.98 4 3 4 C3.19658808 5.41543415 3.38187546 6.83244031 3.5625 8.25 C3.66691406 9.03890625 3.77132812 9.8278125 3.87890625 10.640625 C4.00027349 13.00532874 3.69633257 14.7511037 3 17 C2.38125 16.814375 1.7625 16.62875 1.125 16.4375 C-1.04160178 15.76313824 -1.04160178 15.76313824 -3 17 C-3 16.34 -3 15.68 -3 15 C-3.99 15 -4.98 15 -6 15 C-6 14.34 -6 13.68 -6 13 C-5.01 13 -4.02 13 -3 13 C-3 12.01 -3 11.02 -3 10 C-4.32 10 -5.64 10 -7 10 C-6.67 7.03 -6.34 4.06 -6 1 C-3 0 -3 0 0 0 Z " fill="#E0E8C7" transform="translate(194,149)"/>
<path d="M0 0 C0.71027344 0 1.42054688 0 2.15234375 0 C-1.01006207 2.10827055 -2.35423094 2.33817465 -6.03515625 2.625 C-7.38673828 2.73714844 -7.38673828 2.73714844 -8.765625 2.8515625 C-9.45269531 2.90054688 -10.13976562 2.94953125 -10.84765625 3 C-10.84765625 4.65 -10.84765625 6.3 -10.84765625 8 C-10.18765625 8 -9.52765625 8 -8.84765625 8 C-5.84765625 11.46153846 -5.84765625 11.46153846 -5.84765625 14 C-10.80839047 15.32286246 -15.75877137 15.08893197 -20.84765625 15 C-20.18765625 14.67 -19.52765625 14.34 -18.84765625 14 C-18.72390625 13.319375 -18.60015625 12.63875 -18.47265625 11.9375 C-17.59709257 7.82235069 -16.78730349 4.13757861 -13.84765625 1 C-9.26886216 -0.3263687 -4.72048233 0 0 0 Z " fill="#FCFDF6" transform="translate(192.84765625,116)"/>
<path d="M0 0 C0 0.66 0 1.32 0 2 C0.99 2.33 1.98 2.66 3 3 C3 3.66 3 4.32 3 5 C1.35 5.66 -0.3 6.32 -2 7 C-2 6.34 -2 5.68 -2 5 C-2.99 5 -3.98 5 -5 5 C-5 5.66 -5 6.32 -5 7 C-4.34 7 -3.68 7 -3 7 C-1.74335022 9.90600261 -1 11.79604584 -1 15 C-7.27499197 16.06808374 -13.86896483 17.04367839 -20 15 C-19.67 14.01 -19.34 13.02 -19 12 C-13.72 12 -8.44 12 -3 12 C-3.99 10.68 -4.98 9.36 -6 8 C-6 7.34 -6 6.68 -6 6 C-6.66 6 -7.32 6 -8 6 C-8 4.35 -8 2.7 -8 1 C-5.29120665 -0.35439668 -2.99066732 -0.06501451 0 0 Z " fill="#D9E1C0" transform="translate(190,118)"/>
<path d="M0 0 C1.1446875 -0.03738281 2.289375 -0.07476562 3.46875 -0.11328125 C6.5 0.3125 6.5 0.3125 8.40625 2.20703125 C9.5 4.3125 9.5 4.3125 9.5 6.3125 C15.11 6.6425 20.72 6.9725 26.5 7.3125 C26.17 8.3025 25.84 9.2925 25.5 10.3125 C12.61671832 11.00062781 12.61671832 11.00062781 8.75 8.5625 C6.5 6.3125 6.5 6.3125 5.5 2.3125 C-0.935 2.8075 -0.935 2.8075 -7.5 3.3125 C-7.5 6.2825 -7.5 9.2525 -7.5 12.3125 C-8.16 11.9825 -8.82 11.6525 -9.5 11.3125 C-9.5 8.0125 -9.5 4.7125 -9.5 1.3125 C-6.17521742 0.20423914 -3.49994522 0.07488622 0 0 Z " fill="#D5E3B4" transform="translate(702.5,139.6875)"/>
<path d="M0 0 C0.495 0.99 0.495 0.99 1 2 C0.35417969 1.9278125 -0.29164063 1.855625 -0.95703125 1.78125 C-7.61375226 1.12559485 -14.25243271 0.83731097 -20.9375 0.75 C-21.75387939 0.72873047 -22.57025879 0.70746094 -23.41137695 0.68554688 C-28.17761901 0.65800487 -31.05509763 1.05417905 -35 4 C-36.299375 4.6496875 -36.299375 4.6496875 -37.625 5.3125 C-41.22044528 7.86715849 -42.60181386 10.85443391 -43.40234375 15.16796875 C-43.65275077 17.10605052 -43.83215773 19.05302964 -44 21 C-44.33 21 -44.66 21 -45 21 C-45.54844816 16.26419367 -46.02834478 11.88529877 -43.6875 7.59375 C-33.78984002 -4.24809319 -13.85237578 -4.98685528 0 0 Z " fill="#CBDBA4" transform="translate(739,106)"/>
<path d="M0 0 C5.28 0 10.56 0 16 0 C17.69196504 3.38393008 17.11986549 7.22477791 17.09765625 10.9453125 C17.0962413 11.8303244 17.09482635 12.7153363 17.09336853 13.62716675 C17.0877614 16.45981191 17.07520771 19.29237864 17.0625 22.125 C17.05748592 24.04296761 17.05292285 25.96093646 17.04882812 27.87890625 C17.03778966 32.58596782 17.02052025 37.2929706 17 42 C16.34 42 15.68 42 15 42 C14.67 28.47 14.34 14.94 14 1 C9.38 1 4.76 1 0 1 C0 0.67 0 0.34 0 0 Z " fill="#D1E0AD" transform="translate(307,105)"/>
<path d="M0 0 C0.33 0 0.66 0 1 0 C1.07347656 1.13888672 1.07347656 1.13888672 1.1484375 2.30078125 C1.22320312 3.29464844 1.29796875 4.28851563 1.375 5.3125 C1.44460937 6.29863281 1.51421875 7.28476563 1.5859375 8.30078125 C1.83865472 11.21528433 1.83865472 11.21528433 4 14 C5.32 14 6.64 14 8 14 C8.33 14.99 8.66 15.98 9 17 C14.61 17.33 20.22 17.66 26 18 C26 18.66 26 19.32 26 20 C17.90210517 21.66110663 11.38980924 21.84270081 4 18 C3.01 17.34 2.02 16.68 1 16 C1 15.01 1 14.02 1 13 C0.34 13 -0.32 13 -1 13 C-1.07654536 8.48382401 -1.10228696 4.40914783 0 0 Z " fill="#E0E6CD" transform="translate(174,154)"/>
<path d="M0 0 C0.99 0.33 1.98 0.66 3 1 C3 2.98 3 4.96 3 7 C21.15 7.33 39.3 7.66 58 8 C58 8.33 58 8.66 58 9 C33.25 9 8.5 9 -17 9 C-16.67 8.34 -16.34 7.68 -16 7 C-10.39 7.33 -4.78 7.66 1 8 C0.67 5.36 0.34 2.72 0 0 Z " fill="#DDE8C6" transform="translate(423,152)"/>
<path d="M0 0 C0.66 0 1.32 0 2 0 C0.42586583 4.09274885 -2.54102377 7.35956013 -6 10 C-6.99 10 -7.98 10 -9 10 C-9 10.99 -9 11.98 -9 13 C-11.58958203 15.93952555 -13.25366514 17.75122171 -17 19 C-17 22.3 -17 25.6 -17 29 C-17.66 29 -18.32 29 -19 29 C-19.62493425 19.0878485 -19.62493425 19.0878485 -17.3125 15.0625 C-14.94145718 12.94778613 -12.48048764 10.98439011 -10 9 C-9.34 8.13375 -8.68 7.2675 -8 6.375 C-5.78675611 3.74677288 -4.18165171 3.11787763 -1 2 C-0.67 1.34 -0.34 0.68 0 0 Z " fill="#D0E0AB" transform="translate(445,130)"/>
<path d="M0 0 C1.00023193 0.00523682 2.00046387 0.01047363 3.03100586 0.01586914 C4.1105957 0.0190918 5.19018555 0.02231445 6.30249023 0.02563477 C8.00695312 0.03820312 8.00695312 0.03820312 9.74584961 0.05102539 C11.45611328 0.05779297 11.45611328 0.05779297 13.20092773 0.06469727 C16.02845312 0.07652792 18.85587601 0.09301129 21.68334961 0.11352539 C22.01334961 1.10352539 22.34334961 2.09352539 22.68334961 3.11352539 C14.43334961 3.11352539 6.18334961 3.11352539 -2.31665039 3.11352539 C-2.97665039 4.43352539 -3.63665039 5.75352539 -4.31665039 7.11352539 C-3.28113649 0.16078917 -3.28113649 0.16078917 0 0 Z " fill="#CEDFA6" transform="translate(380.316650390625,148.886474609375)"/>
<path d="M0 0 C0.33 0 0.66 0 1 0 C1.33 11.88 1.66 23.76 2 36 C2.66 36 3.32 36 4 36 C4.58201172 36.73669922 4.58201172 36.73669922 5.17578125 37.48828125 C8.01275063 39.83926016 10.58740438 39.2865852 14.1875 39.1875 C15.45980469 39.16042969 16.73210938 39.13335937 18.04296875 39.10546875 C19.01878906 39.07066406 19.99460937 39.03585938 21 39 C20.34 39.99 19.68 40.98 19 42 C16.42578125 42.46875 16.42578125 42.46875 13.3125 42.5 C12.29800781 42.5309375 11.28351562 42.561875 10.23828125 42.59375 C5.9401554 41.80567385 2.9750379 40.23688848 0 37 C-0.93963945 34.11711685 -0.82225222 31.42503124 -0.68359375 28.41796875 C-0.67368912 27.60378983 -0.66378448 26.7896109 -0.65357971 25.95075989 C-0.6145246 23.36114018 -0.52673611 20.7758282 -0.4375 18.1875 C-0.4023739 16.4277958 -0.37043714 14.66802484 -0.34179688 12.90820312 C-0.26479376 8.60381982 -0.14408631 4.302639 0 0 Z " fill="#D4E3B0" transform="translate(643,107)"/>
<path d="M0 0 C2.70556641 -0.34057617 2.70556641 -0.34057617 6.1015625 -0.29296875 C7.31328125 -0.28330078 8.525 -0.27363281 9.7734375 -0.26367188 C11.04445313 -0.23853516 12.31546875 -0.21339844 13.625 -0.1875 C14.90375 -0.17396484 16.1825 -0.16042969 17.5 -0.14648438 C20.66708282 -0.11103196 23.83333541 -0.06161441 27 0 C27.66 2.97 28.32 5.94 29 9 C28.34 9 27.68 9 27 9 C26.67 6.69 26.34 4.38 26 2 C18.08 2.33 10.16 2.66 2 3 C1.01 4.98 0.02 6.96 -1 9 C-1.33 9 -1.66 9 -2 9 C-2.25 3.375 -2.25 3.375 0 0 Z " fill="#D5E4B3" transform="translate(505,150)"/>
<path d="M0 0 C0.33 0.66 0.66 1.32 1 2 C2.30203369 1.98428955 2.30203369 1.98428955 3.63037109 1.96826172 C6.84699528 1.93420284 10.06352767 1.90911233 13.28027344 1.89013672 C14.67320781 1.88007123 16.06612102 1.86641766 17.45898438 1.84912109 C19.4595436 1.8248978 21.46025615 1.81459186 23.4609375 1.8046875 C25.26763916 1.78897705 25.26763916 1.78897705 27.11083984 1.77294922 C30 2 30 2 32 4 C32.1953125 6.3828125 32.1953125 6.3828125 32.125 9.125 C32.10695313 10.03507813 32.08890625 10.94515625 32.0703125 11.8828125 C32.04710937 12.58148438 32.02390625 13.28015625 32 14 C31.01 14.495 31.01 14.495 30 15 C29.67 11.37 29.34 7.74 29 4 C27.99582031 4.01160156 26.99164063 4.02320313 25.95703125 4.03515625 C17.25093469 4.10357351 8.67626745 3.83197085 0 3 C0 2.01 0 1.02 0 0 Z " fill="#CCDDAA" transform="translate(451,145)"/>
<path d="M0 0 C4.2358357 -0.02469321 8.47163342 -0.04285671 12.70751953 -0.05493164 C14.1489332 -0.05996474 15.59034176 -0.06679173 17.03173828 -0.07543945 C19.10190085 -0.08754983 21.17199601 -0.09323847 23.2421875 -0.09765625 C24.4885498 -0.10289307 25.73491211 -0.10812988 27.01904297 -0.11352539 C30 0 30 0 32 1 C32 4.63 32 8.26 32 12 C31.67 12 31.34 12 31 12 C31 9.03 31 6.06 31 3 C30.13197754 2.98018066 29.26395508 2.96036133 28.36962891 2.93994141 C25.15273733 2.86190128 21.93622955 2.77521119 18.71972656 2.68261719 C17.32691428 2.64430673 15.93400235 2.60945741 14.54101562 2.578125 C12.54013692 2.53252093 10.53957854 2.47348377 8.5390625 2.4140625 C6.73236084 2.36693115 6.73236084 2.36693115 4.88916016 2.31884766 C2 2 2 2 0 0 Z " fill="#C9DAA2" transform="translate(324,147)"/>
<path d="M0 0 C1.00289062 0.10183594 2.00578125 0.20367187 3.0390625 0.30859375 C3.80992187 0.39238281 4.58078125 0.47617188 5.375 0.5625 C5.375 1.5525 5.375 2.5425 5.375 3.5625 C3.065 3.8925 0.755 4.2225 -1.625 4.5625 C-0.305 3.9025 1.015 3.2425 2.375 2.5625 C0.725 2.5625 -0.925 2.5625 -2.625 2.5625 C-2.955 4.8725 -3.285 7.1825 -3.625 9.5625 C-5.605 9.8925 -7.585 10.2225 -9.625 10.5625 C-9.955 9.5725 -10.285 8.5825 -10.625 7.5625 C-11.285 7.5625 -11.945 7.5625 -12.625 7.5625 C-12.625 6.9025 -12.625 6.2425 -12.625 5.5625 C-11.75875 5.8409375 -11.75875 5.8409375 -10.875 6.125 C-8.41807475 6.60273546 -6.98102466 6.31979364 -4.625 5.5625 C-4.625 4.9025 -4.625 4.2425 -4.625 3.5625 C-6.275 3.5625 -7.925 3.5625 -9.625 3.5625 C-8.965 3.2325 -8.305 2.9025 -7.625 2.5625 C-7.625 1.9025 -7.625 1.2425 -7.625 0.5625 C-4.89657939 -0.80171031 -3.01546682 -0.31557211 0 0 Z " fill="#E8F1D3" transform="translate(197.625,117.4375)"/>
<path d="M0 0 C3 1 3 1 4.1875 2.5625 C5 5 5 5 5 13 C-0.61 13 -6.22 13 -12 13 C-12.33 12.01 -12.66 11.02 -13 10 C-13.66 10 -14.32 10 -15 10 C-15.33 9.01 -15.66 8.02 -16 7 C-14.02 7.66 -12.04 8.32 -10 9 C-10 9.99 -10 10.98 -10 12 C-3.565 11.505 -3.565 11.505 3 11 C3 9.68 3 8.36 3 7 C2.34 7 1.68 7 1 7 C0.67 4.69 0.34 2.38 0 0 Z " fill="#C4D397" transform="translate(744,111)"/>
<path d="M0 0 C0.66 0.33 1.32 0.66 2 1 C-0.98138085 4.22982926 -2.7769377 5.98064013 -7 7 C-7.71875426 8.30599178 -8.3725771 9.64775641 -9 11 C-10.03517975 12.92017797 -11.07722246 14.8366671 -12.125 16.75 C-12.66382812 17.73484375 -13.20265625 18.7196875 -13.7578125 19.734375 C-14.16773437 20.48203125 -14.57765625 21.2296875 -15 22 C-15.66 21.67 -16.32 21.34 -17 21 C-16.67 19.35 -16.34 17.7 -16 16 C-15.34 16 -14.68 16 -14 16 C-13.9071875 14.63875 -13.9071875 14.63875 -13.8125 13.25 C-12.8092713 9.23708521 -11.43590857 8.17886885 -8 6 C-7.34 6 -6.68 6 -6 6 C-6 5.34 -6 4.68 -6 4 C-4.02709413 1.65130253 -2.99693138 0.99897713 0 0 Z " fill="#D8E1BD" transform="translate(131,73)"/>
<path d="M0 0 C9.24 0 18.48 0 28 0 C28 0.99 28 1.98 28 3 C27.34 3 26.68 3 26 3 C25.67 3.99 25.34 4.98 25 6 C24.34 5.01 23.68 4.02 23 3 C20.5842887 2.49095616 20.5842887 2.49095616 17.7734375 2.48828125 C16.7421875 2.45283203 15.7109375 2.41738281 14.6484375 2.38085938 C13.56820313 2.35830078 12.48796875 2.33574219 11.375 2.3125 C9.74304688 2.26125977 9.74304688 2.26125977 8.078125 2.20898438 C5.38551937 2.12631666 2.69324709 2.05722913 0 2 C0 1.34 0 0.68 0 0 Z " fill="#EBF5DB" transform="translate(428,118)"/>
<path d="M0 0 C1.134375 0.020625 2.26875 0.04125 3.4375 0.0625 C3.1075 0.7225 2.7775 1.3825 2.4375 2.0625 C3.0975 2.0625 3.7575 2.0625 4.4375 2.0625 C4.1075 3.0525 3.7775 4.0425 3.4375 5.0625 C2.7775 5.0625 2.1175 5.0625 1.4375 5.0625 C1.1075 6.0525 0.7775 7.0425 0.4375 8.0625 C-0.5525 8.7225 -1.5425 9.3825 -2.5625 10.0625 C-3.29215366 12.62532742 -3.29215366 12.62532742 -3.5625 15.0625 C-4.2225 15.0625 -4.8825 15.0625 -5.5625 15.0625 C-5.42223717 12.74965544 -5.27514442 10.43722409 -5.125 8.125 C-5.04378906 6.83722656 -4.96257812 5.54945312 -4.87890625 4.22265625 C-4.46395985 0.07831509 -4.46395985 0.07831509 0 0 Z " fill="#D5E0B7" transform="translate(198.5625,118.9375)"/>
<path d="M0 0 C5.76578458 -0.0247279 11.53153825 -0.04287328 17.29736328 -0.05493164 C19.25863177 -0.05995887 21.21989652 -0.06678157 23.18115234 -0.07543945 C26.00098597 -0.08757545 28.82077002 -0.09324444 31.640625 -0.09765625 C32.95489471 -0.10539818 32.95489471 -0.10539818 34.29571533 -0.11329651 C35.52653839 -0.11340981 35.52653839 -0.11340981 36.78222656 -0.11352539 C37.86144379 -0.11685631 37.86144379 -0.11685631 38.96246338 -0.12025452 C41.08372224 0.00494125 42.95966287 0.42081435 45 1 C45 1.66 45 2.32 45 3 C45.804375 3.12375 46.60875 3.2475 47.4375 3.375 C48.7059375 3.684375 48.7059375 3.684375 50 4 C50.495 4.99 50.495 4.99 51 6 C46.545 5.01 46.545 5.01 42 4 C42 3.34 42 2.68 42 2 C21.705 1.505 21.705 1.505 1 1 C0.67 1.66 0.34 2.32 0 3 C0 2.01 0 1.02 0 0 Z " fill="#C5D4A5" transform="translate(559,105)"/>
<path d="M0 0 C-2 1 -2 1 -4.3125 1.375 C-7.34055863 2.07919968 -9.38507224 3.34846668 -12 5 C-12.99 5.33 -13.98 5.66 -15 6 C-15.73323796 8.01508358 -15.73323796 8.01508358 -16 10 C-16.66 10 -17.32 10 -18 10 C-18 10.99 -18 11.98 -18 13 C-18.66 13 -19.32 13 -20 13 C-20 15.64 -20 18.28 -20 21 C-20.33 21 -20.66 21 -21 21 C-21.34553378 15.24110366 -21.36702695 10.93830619 -18 6 C-16.09071228 4.07543798 -14.21645176 2.60339064 -12 1 C-11.34 1 -10.68 1 -10 1 C-10 0.34 -10 -0.32 -10 -1 C-6.06329512 -2.31223496 -3.87511856 -1.24296256 0 0 Z " fill="#DBE2C1" transform="translate(130,135)"/>
<path d="M0 0 C1.48831242 0.00667405 2.97660807 0.01863442 4.46484375 0.03515625 C5.22345703 0.03966797 5.98207031 0.04417969 6.76367188 0.04882812 C8.64326246 0.06064945 10.52281274 0.07858547 12.40234375 0.09765625 C12.07234375 0.75765625 11.74234375 1.41765625 11.40234375 2.09765625 C7.44234375 1.76765625 3.48234375 1.43765625 -0.59765625 1.09765625 C-0.59765625 1.75765625 -0.59765625 2.41765625 -0.59765625 3.09765625 C-1.58765625 3.09765625 -2.57765625 3.09765625 -3.59765625 3.09765625 C-3.59765625 12.66765625 -3.59765625 22.23765625 -3.59765625 32.09765625 C-3.92765625 32.09765625 -4.25765625 32.09765625 -4.59765625 32.09765625 C-4.62231129 27.70109452 -4.64049467 23.30456905 -4.65258789 18.90795898 C-4.65762746 17.41120707 -4.66445912 15.91446009 -4.6730957 14.41772461 C-4.68517784 12.27065818 -4.69088816 10.12365663 -4.6953125 7.9765625 C-4.70054932 6.68306885 -4.70578613 5.3895752 -4.71118164 4.05688477 C-4.54544506 -0.26331554 -4.44088395 0.12054517 0 0 Z " fill="#C9D8AA" transform="translate(671.59765625,104.90234375)"/>
<path d="M0 0 C0.33 0 0.66 0 1 0 C0.97679688 1.22976562 0.95359375 2.45953125 0.9296875 3.7265625 C0.91091961 5.3593689 0.89272051 6.9921819 0.875 8.625 C0.85824219 9.43324219 0.84148437 10.24148437 0.82421875 11.07421875 C0.78562526 15.82121744 1.22102535 19.52560922 3 24 C3.36106097 25.66088045 3.70462173 27.32618981 4 29 C0.00648302 26.33765534 -1.03700194 23.54455932 -2 19 C-2.98923264 4.71608018 -2.98923264 4.71608018 0 0 Z " fill="#CFD9B1" transform="translate(114,94)"/>
<path d="M0 0 C1.98 0.495 1.98 0.495 4 1 C3.67 4.3 3.34 7.6 3 11 C4.32 11.33 5.64 11.66 7 12 C7 12.66 7 13.32 7 14 C7.66 14.33 8.32 14.66 9 15 C7.02 15.99 7.02 15.99 5 17 C2.16625119 13.79663178 1.4794463 11.21912747 1 7 C0.34 8.32 -0.32 9.64 -1 11 C-0.67 7.37 -0.34 3.74 0 0 Z " fill="#EFF2E1" transform="translate(173,152)"/>
<path d="M0 0 C1.32 0 2.64 0 4 0 C4 7.59 4 15.18 4 23 C4.99 23 5.98 23 7 23 C7 25.64 7 28.28 7 31 C6.01 31 5.02 31 4 31 C2.96025501 27.58934861 2.88491494 24.47735158 2.90234375 20.921875 C2.90556641 19.76171875 2.90878906 18.6015625 2.91210938 17.40625 C2.92048828 16.1996875 2.92886719 14.993125 2.9375 13.75 C2.94201172 12.52796875 2.94652344 11.3059375 2.95117188 10.046875 C2.96295185 7.03120054 2.97940147 4.01562502 3 1 C2.01 0.67 1.02 0.34 0 0 Z " fill="#E5EBD4" transform="translate(122,145)"/>
<path d="M0 0 C1.22976563 0.08378906 2.45953125 0.16757813 3.7265625 0.25390625 C5.35935242 0.3571286 6.99216625 0.45997323 8.625 0.5625 C9.43324219 0.61857422 10.24148438 0.67464844 11.07421875 0.73242188 C15.58239846 1.00731088 19.54182375 0.8812674 24 0 C26.67810075 -0.11196073 29.31732686 -0.04625299 32 0 C32 0.33 32 0.66 32 1 C26.74991264 3.14428203 22.13490295 3.30228212 16.5625 3.25 C15.74201172 3.25773438 14.92152344 3.26546875 14.07617188 3.2734375 C9.00476702 3.25724786 4.80498809 2.6296864 0 1 C0 0.67 0 0.34 0 0 Z " fill="#CEDDA9" transform="translate(705,159)"/>
<path d="M0 0 C0.99 0.495 0.99 0.495 2 1 C2 1.99 2 2.98 2 4 C2.66 4 3.32 4 4 4 C6.77560677 8.95644066 7.99082794 14.44955365 9 20 C8.34 20 7.68 20 7 20 C6.731875 18.865625 6.46375 17.73125 6.1875 16.5625 C5.5996875 14.7990625 5.5996875 14.7990625 5 13 C4.01 12.67 3.02 12.34 2 12 C1.855625 10.948125 1.71125 9.89625 1.5625 8.8125 C1.12473034 5.84539451 0.62195134 2.93205634 0 0 Z " fill="#D6E4B5" transform="translate(541,132)"/>
<path d="M0 0 C0.33 0.99 0.66 1.98 1 3 C0.34 3.66 -0.32 4.32 -1 5 C11.87 5.495 11.87 5.495 25 6 C25 6.99 25 7.98 25 9 C24.67 8.67 24.34 8.34 24 8 C21.85613343 7.84141158 19.70733162 7.74870702 17.55859375 7.68359375 C16.25341797 7.64169922 14.94824219 7.59980469 13.60351562 7.55664062 C12.2148467 7.51682392 10.82617478 7.47711175 9.4375 7.4375 C8.04490817 7.39432011 6.65232972 7.350706 5.25976562 7.30664062 C1.83995199 7.20014124 -1.57993763 7.09813077 -5 7 C-5 6.01 -5 5.02 -5 4 C-2.5 1.8125 -2.5 1.8125 0 0 Z " fill="#F4FBE3" transform="translate(457,140)"/>
<path d="M0 0 C3 1 3 1 4.67578125 3.13671875 C6.27326622 6.59086766 6.30226669 9.02519934 6.1875 12.8125 C6.16042969 13.97394531 6.13335938 15.13539062 6.10546875 16.33203125 C6.07066406 17.21246094 6.03585937 18.09289062 6 19 C5.34 19 4.68 19 4 19 C3.34 20.32 2.68 21.64 2 23 C1.34 22.67 0.68 22.34 0 22 C0.66 21.34 1.32 20.68 2 20 C2.45847689 17.63969304 2.82143131 15.2601826 3.125 12.875 C3.29257812 11.59367187 3.46015625 10.31234375 3.6328125 8.9921875 C3.75398437 8.00476563 3.87515625 7.01734375 4 6 C3.34 6 2.68 6 2 6 C1.34 4.02 0.68 2.04 0 0 Z " fill="#D5E2B4" transform="translate(610,111)"/>
<path d="M0 0 C0 0.66 0 1.32 0 2 C0.99 2.33 1.98 2.66 3 3 C3 3.66 3 4.32 3 5 C1.35 5.66 -0.3 6.32 -2 7 C-2 6.34 -2 5.68 -2 5 C-2.99 5 -3.98 5 -5 5 C-5.33 5.66 -5.66 6.32 -6 7 C-6.66 6.67 -7.32 6.34 -8 6 C-8 4.35 -8 2.7 -8 1 C-5.29120665 -0.35439668 -2.99066732 -0.06501451 0 0 Z " fill="#D2DFB2" transform="translate(190,118)"/>
<path d="M0 0 C-5.71428571 3.8538206 -5.71428571 3.8538206 -8.6875 5.375 C-12.25998461 7.88539459 -13.61143944 10.90629989 -14.40234375 15.16796875 C-14.65275077 17.10605052 -14.83215773 19.05302964 -15 21 C-15.33 21 -15.66 21 -16 21 C-16.54844816 16.26419367 -17.02834478 11.88529877 -14.6875 7.59375 C-11.45739743 3.729163 -5.43016441 -2.71508221 0 0 Z " fill="#D0DFAD" transform="translate(710,106)"/>
<path d="M0 0 C1.90863156 3.81726312 0.98685989 8.85220972 0.87304688 13.08398438 C0.80202029 18.14358432 1.36305373 22.20471034 3 27 C-0.3473756 24.08454383 -1.39558526 22.3604206 -2 18 C-2.11519024 15.835495 -2.17483919 13.66753095 -2.1875 11.5 C-2.20167969 10.3965625 -2.21585937 9.293125 -2.23046875 8.15625 C-2.00127637 5.01747977 -1.33493744 2.82816786 0 0 Z " fill="#EEF5DE" transform="translate(116,94)"/>
<path d="M0 0 C1.24546405 2.49092811 0.7767578 3.41080733 0 6 C2.64 5.67 5.28 5.34 8 5 C8.33 3.68 8.66 2.36 9 1 C10.4606285 3.64738916 11 4.89448334 11 8 C6.71 8 2.42 8 -2 8 C-1.125 1.125 -1.125 1.125 0 0 Z " fill="#DDE9BE" transform="translate(514,131)"/>
<path d="M0 0 C0 0.99 0 1.98 0 3 C-1.84135296 4.84135296 -4.47139806 4.40670977 -6.94140625 4.6796875 C-9.47608182 5.07407725 -11.63030008 6.03931084 -14 7 C-16.8125 7.125 -16.8125 7.125 -19 7 C-16.26245823 3.2237072 -12.1020289 2.77530256 -7.8125 1.8125 C-7.06291016 1.63525391 -6.31332031 1.45800781 -5.54101562 1.27539062 C-3.69625181 0.84063737 -1.84839934 0.41902724 0 0 Z " fill="#D8E0BA" transform="translate(187,136)"/>
<path d="M0 0 C0.99 0.33 1.98 0.66 3 1 C3 2.98 3 4.96 3 7 C3.66 7 4.32 7 5 7 C5 7.66 5 8.32 5 9 C-2.26 9 -9.52 9 -17 9 C-16.67 8.34 -16.34 7.68 -16 7 C-10.39 7.33 -4.78 7.66 1 8 C0.67 5.36 0.34 2.72 0 0 Z " fill="#E4EFCF" transform="translate(423,152)"/>
<path d="M0 0 C0.7425 0.804375 1.485 1.60875 2.25 2.4375 C4.75304829 4.76988591 5.7180955 5.63534394 9 6 C9 4.35 9 2.7 9 1 C9.66 1.33 10.32 1.66 11 2 C11.6875 4.5 11.6875 4.5 12 7 C11 8 11 8 8.25 8.3125 C4.27102757 7.9299065 2.89907714 6.66401683 0 4 C-0.99 3.34 -1.98 2.68 -3 2 C-2.01 2 -1.02 2 0 2 C0 1.34 0 0.68 0 0 Z " fill="#E0E7CA" transform="translate(134,194)"/>
<path d="M0 0 C0.66 1.32 1.32 2.64 2 4 C1.34 4 0.68 4 0 4 C-0.33 5.32 -0.66 6.64 -1 8 C-2.65 8 -4.3 8 -6 8 C-6 6.35 -6 4.7 -6 3 C-5.34 3 -4.68 3 -4 3 C-4 2.34 -4 1.68 -4 1 C-2.68 0.67 -1.36 0.34 0 0 Z " fill="#ECF4DA" transform="translate(131,187)"/>
<path d="M0 0 C1.9375 0.8125 1.9375 0.8125 4 2 C6.00366625 8.01099874 4.90288558 13.17241292 3 19 C2.34 18.67 1.68 18.34 1 18 C1.08378906 17.25234375 1.16757812 16.5046875 1.25390625 15.734375 C1.35574219 14.74953125 1.45757813 13.7646875 1.5625 12.75 C1.66691406 11.77546875 1.77132812 10.8009375 1.87890625 9.796875 C1.99138933 7.19887862 1.89524667 5.42306283 1 3 C0.34 2.34 -0.32 1.68 -1 1 C-0.67 0.67 -0.34 0.34 0 0 Z " fill="#CBDBA3" transform="translate(746,134)"/>
<path d="M0 0 C2.5 1.8125 2.5 1.8125 5 4 C5 4.99 5 5.98 5 7 C7.29225435 6.88628503 9.58382388 6.75869036 11.875 6.625 C13.78925781 6.52058594 13.78925781 6.52058594 15.7421875 6.4140625 C19.08061699 6.32758894 19.08061699 6.32758894 21 4 C21 5.32 21 6.64 21 8 C18.22890693 8.05392397 15.45886182 8.09363455 12.6875 8.125 C11.90181641 8.14175781 11.11613281 8.15851563 10.30664062 8.17578125 C9.54931641 8.18222656 8.79199219 8.18867188 8.01171875 8.1953125 C6.96697388 8.21102295 6.96697388 8.21102295 5.90112305 8.22705078 C4 8 4 8 1 6 C0.3125 2.875 0.3125 2.875 0 0 Z " fill="#C8DA9E" transform="translate(403,152)"/>
<path d="M0 0 C6.6 0.66 13.2 1.32 20 2 C19.67 2.66 19.34 3.32 19 4 C5.18223235 4.55353075 5.18223235 4.55353075 0 1 C0 0.67 0 0.34 0 0 Z " fill="#CFDBA8" transform="translate(133,136)"/>
<path d="M0 0 C3.63 0 7.26 0 11 0 C11 0.33 11 0.66 11 1 C8.36 1.33 5.72 1.66 3 2 C3 5.63 3 9.26 3 13 C2.01 13 1.02 13 0 13 C0 8.71 0 4.42 0 0 Z " fill="#D0DEB2" transform="translate(427,105)"/>
<path d="M0 0 C2.30345464 4.19761776 3.23210632 8.20313597 3 13 C1.1875 15.8125 1.1875 15.8125 -1 18 C-1.70885894 19.31138904 -2.39456452 20.63777017 -3 22 C-3.1875 18.6875 -3.1875 18.6875 -3 15 C-2.505 14.5565625 -2.01 14.113125 -1.5 13.65625 C0.75531736 11.16600375 0.29335401 9.09397422 0.1875 5.8125 C0.16042969 4.72582031 0.13335937 3.63914063 0.10546875 2.51953125 C0.05326172 1.27236328 0.05326172 1.27236328 0 0 Z " fill="#F7FBEA" transform="translate(125,172)"/>
<path d="M0 0 C2.97 0.495 2.97 0.495 6 1 C5 4 5 4 3 5 C2.67 5.99 2.34 6.98 2 8 C1.34 8 0.68 8 0 8 C-0.33 8.66 -0.66 9.32 -1 10 C-1.125 3.375 -1.125 3.375 0 0 Z " fill="#F4FAE6" transform="translate(112,145)"/>
<path d="M0 0 C-3.16240582 2.10827055 -4.50657469 2.33817465 -8.1875 2.625 C-9.53908203 2.73714844 -9.53908203 2.73714844 -10.91796875 2.8515625 C-11.94857422 2.92503906 -11.94857422 2.92503906 -13 3 C-13.33 4.32 -13.66 5.64 -14 7 C-14.33 6.67 -14.66 6.34 -15 6 C-15.33 6.66 -15.66 7.32 -16 8 C-16.66 8 -17.32 8 -18 8 C-17.34 5.69 -16.68 3.38 -16 1 C-14.27111445 0.83044205 -12.54187557 0.66448486 -10.8125 0.5 C-9.84957031 0.4071875 -8.88664063 0.314375 -7.89453125 0.21875 C-5.24812333 0.01875156 -2.65239135 -0.03879183 0 0 Z " fill="#F3F9E4" transform="translate(195,116)"/>
<path d="M0 0 C-0.33 1.32 -0.66 2.64 -1 4 C-1.99 4 -2.98 4 -4 4 C-4 5.65 -4 7.3 -4 9 C-4.99 9.33 -5.98 9.66 -7 10 C-6.67 7.03 -6.34 4.06 -6 1 C-3 0 -3 0 0 0 Z " fill="#ECF2DB" transform="translate(194,149)"/>
<path d="M0 0 C0.33 0.99 0.66 1.98 1 3 C-1.39509338 5.89932357 -3.31245243 6.50168276 -7 7 C-7.33 8.32 -7.66 9.64 -8 11 C-9.32 11.33 -10.64 11.66 -12 12 C-11.34 11.67 -10.68 11.34 -10 11 C-9.79375 10.278125 -9.5875 9.55625 -9.375 8.8125 C-7.32069827 4.61051919 -3.80800128 2.57704273 0 0 Z " fill="#EDF5DA" transform="translate(479,120)"/>
<path d="M0 0 C1.65 0.33 3.3 0.66 5 1 C4.67 2.32 4.34 3.64 4 5 C3.67 4.01 3.34 3.02 3 2 C2.34 4.31 1.68 6.62 1 9 C0.34 9 -0.32 9 -1 9 C-1.33 9.99 -1.66 10.98 -2 12 C-3.40907283 9.18185434 -2.50872691 7.82722796 -1.5625 4.875 C-1.27503906 3.96492188 -0.98757813 3.05484375 -0.69140625 2.1171875 C-0.46324219 1.41851562 -0.23507812 0.71984375 0 0 Z " fill="#DFEBC4" transform="translate(388,123)"/>
<path d="M0 0 C-0.33 1.32 -0.66 2.64 -1 4 C-3.97 4.66 -6.94 5.32 -10 6 C-9.67 5.34 -9.34 4.68 -9 4 C-8.34 4 -7.68 4 -7 4 C-7 3.34 -7 2.68 -7 2 C-7.66 1.67 -8.32 1.34 -9 1 C-5.8035914 -0.06546953 -3.34252724 -0.07427838 0 0 Z " fill="#F7FCEB" transform="translate(188,133)"/>
<path d="M0 0 C2.31 0 4.62 0 7 0 C7 0.66 7 1.32 7 2 C7.94875 2.144375 8.8975 2.28875 9.875 2.4375 C13 3 13 3 15 4 C15 4.66 15 5.32 15 6 C9.55432314 4.97137215 4.88182883 3.75385216 0 1 C0 0.67 0 0.34 0 0 Z " fill="#C8D99F" transform="translate(731,128)"/>
<path d="M0 0 C0.66 0.33 1.32 0.66 2 1 C1.34 1.70125 0.68 2.4025 0 3.125 C-2.33219046 6.47752378 -2.43407509 8.00650916 -2 12 C-1.67 12.99 -1.34 13.98 -1 15 C-0.01 15.33 0.98 15.66 2 16 C1.67 16.66 1.34 17.32 1 18 C-1.70902496 15.90050565 -3.73024693 14.2529027 -4.47265625 10.8046875 C-4.62620359 6.75904887 -4.54296056 4.69566822 -2 1.4375 C-1.34 0.963125 -0.68 0.48875 0 0 Z " fill="#F7FBEB" transform="translate(200,124)"/>
<path d="M0 0 C0.86625 0.37125 0.86625 0.37125 1.75 0.75 C1.09 0.75 0.43 0.75 -0.25 0.75 C-0.25 1.41 -0.25 2.07 -0.25 2.75 C-1.24 2.75 -2.23 2.75 -3.25 2.75 C-3.58 5.72 -3.91 8.69 -4.25 11.75 C-4.91 11.75 -5.57 11.75 -6.25 11.75 C-6.73590022 4.46149675 -6.73590022 4.46149675 -4.5 1.1875 C-2.25 -0.25 -2.25 -0.25 0 0 Z " fill="#D7DFBB" transform="translate(166.25,143.25)"/>
<path d="M0 0 C3 1 3 1 5 4 C5.99 4.66 6.98 5.32 8 6 C8 6.66 8 7.32 8 8 C6.02 8.99 6.02 8.99 4 10 C2.68 6.7 1.36 3.4 0 0 Z " fill="#F7FBEE" transform="translate(130,184)"/>
<path d="M0 0 C0.33 0 0.66 0 1 0 C1.19658808 1.41543415 1.38187546 2.83244031 1.5625 4.25 C1.66691406 5.03890625 1.77132812 5.8278125 1.87890625 6.640625 C2.00027349 9.00532874 1.69633257 10.7511037 1 13 C0.01 12.67 -0.98 12.34 -2 12 C-1.34 9.36 -0.68 6.72 0 4 C-1.32 3.67 -2.64 3.34 -4 3 C-2.68 2.67 -1.36 2.34 0 2 C0 1.34 0 0.68 0 0 Z " fill="#EBF1D7" transform="translate(196,153)"/>
<path d="M0 0 C2.31 0 4.62 0 7 0 C6.67 0.66 6.34 1.32 6 2 C6.66 2 7.32 2 8 2 C7.67 2.99 7.34 3.98 7 5 C4.36 5 1.72 5 -1 5 C-0.67 3.35 -0.34 1.7 0 0 Z " fill="#DDE5C1" transform="translate(195,119)"/>
<path d="M0 0 C0 3.96 0 7.92 0 12 C-0.33 12 -0.66 12 -1 12 C-1.33 8.7 -1.66 5.4 -2 2 C-2.928125 2.99 -2.928125 2.99 -3.875 4 C-6 6 -6 6 -8 6 C-6.37238544 1.11715631 -5.24891276 0 0 0 Z " fill="#FAFDEE" transform="translate(125,146)"/>
<path d="M0 0 C13.6332574 -0.55353075 13.6332574 -0.55353075 20 3 C16.11186461 4.49543669 13.84448364 3.28149455 10 2 C6.67556302 1.54214341 3.345871 1.25127094 0 1 C0 0.67 0 0.34 0 0 Z " fill="#CDD8AC" transform="translate(142,70)"/>
<path d="M0 0 C3 1 3 1 4.1875 2.5625 C5.37040794 6.11122383 5.12443279 9.26701621 5 13 C4.34 12.67 3.68 12.34 3 12 C3 10.35 3 8.7 3 7 C2.34 7 1.68 7 1 7 C0.67 4.69 0.34 2.38 0 0 Z " fill="#D2E1AF" transform="translate(744,111)"/>
<path d="M0 0 C2.31 0.33 4.62 0.66 7 1 C7 1.66 7 2.32 7 3 C8.32 3.33 9.64 3.66 11 4 C9.56260487 4.02712066 8.12506137 4.04645067 6.6875 4.0625 C5.48673828 4.07990234 5.48673828 4.07990234 4.26171875 4.09765625 C2 4 2 4 -1 3 C-0.67 2.01 -0.34 1.02 0 0 Z " fill="#E7EDD0" transform="translate(171,130)"/>
<path d="M0 0 C-0.79664063 0.38091797 -0.79664063 0.38091797 -1.609375 0.76953125 C-5.3324172 2.58349524 -8.79762215 4.3313518 -12 7 C-12 5.68 -12 4.36 -12 3 C-11.01 3 -10.02 3 -9 3 C-9 2.34 -9 1.68 -9 1 C-5.47051709 -0.66670026 -3.71727674 -1.13583456 0 0 Z " fill="#F6FCE8" transform="translate(708,106)"/>
<path d="M0 0 C0.33 0.66 0.66 1.32 1 2 C-3.30769231 7.78461538 -3.30769231 7.78461538 -6.8125 8.875 C-7.8953125 8.936875 -7.8953125 8.936875 -9 9 C-9 8.34 -9 7.68 -9 7 C-7.02053408 5.63636792 -5.0180755 4.30581356 -3 3 C-1.20605554 1.37648891 -1.20605554 1.37648891 0 0 Z " fill="#F0F7E0" transform="translate(682,150)"/>
<path d="M0 0 C0 3 0 3 -1 5 C-0.01 5.33 0.98 5.66 2 6 C-0.64 6 -3.28 6 -6 6 C-4.75453595 2.26360784 -3.36595047 1.81243487 0 0 Z " fill="#D0DBAC" transform="translate(171,128)"/>
<path d="M0 0 C2.31 0.33 4.62 0.66 7 1 C7 1.66 7 2.32 7 3 C7.804375 3.12375 8.60875 3.2475 9.4375 3.375 C10.7059375 3.684375 10.7059375 3.684375 12 4 C12.33 4.66 12.66 5.32 13 6 C8.545 5.01 8.545 5.01 4 4 C4 3.34 4 2.68 4 2 C2.68 2 1.36 2 0 2 C0 1.34 0 0.68 0 0 Z " fill="#D2DFAF" transform="translate(597,105)"/>
<path d="M0 0 C3.8665284 3.222107 4.88059018 6.14922412 6 11 C3 10 3 10 1.3125 7.1875 C0 4 0 4 0 0 Z " fill="#D0DFAA" transform="translate(611,143)"/>
<path d="M0 0 C0.9075 0.103125 1.815 0.20625 2.75 0.3125 C2.75 0.9725 2.75 1.6325 2.75 2.3125 C1.574375 2.4671875 1.574375 2.4671875 0.375 2.625 C-2.58045181 3.08845022 -2.58045181 3.08845022 -4.25 6.3125 C-5.24 5.9825 -6.23 5.6525 -7.25 5.3125 C-4.05 0.38942308 -4.05 0.38942308 0 0 Z " fill="#DAE0C1" transform="translate(124.25,142.6875)"/>
<path d="M0 0 C1.0326802 2.78823655 1.04509293 3.8677274 0.0625 6.75 C-0.288125 7.4925 -0.63875 8.235 -1 9 C-1.99 9 -2.98 9 -4 9 C-3.67 7.02 -3.34 5.04 -3 3 C-2.34 3 -1.68 3 -1 3 C-0.67 2.01 -0.34 1.02 0 0 Z " fill="#D3E2B1" transform="translate(503,115)"/>
<path d="M0 0 C0.66 0 1.32 0 2 0 C2 1.32 2 2.64 2 4 C2.66 4 3.32 4 4 4 C4.33 5.65 4.66 7.3 5 9 C3.35 8.67 1.7 8.34 0 8 C-0.33 6.35 -0.66 4.7 -1 3 C-0.34 3 0.32 3 1 3 C0.67 2.01 0.34 1.02 0 0 Z " fill="#E2EACB" transform="translate(176,85)"/>
<path d="M0 0 C0.33 0.66 0.66 1.32 1 2 C1.66 2.33 2.32 2.66 3 3 C2.01 3 1.02 3 0 3 C0 3.66 0 4.32 0 5 C-0.66 5 -1.32 5 -2 5 C-2 6.32 -2 7.64 -2 9 C-2.66 9 -3.32 9 -4 9 C-3.38461538 3.46153846 -3.38461538 3.46153846 -1.4375 1.125 C-0.963125 0.75375 -0.48875 0.3825 0 0 Z " fill="#DBE1C8" transform="translate(127,185)"/>
<path d="M0 0 C0.556875 0.226875 1.11375 0.45375 1.6875 0.6875 C0.0375 1.3475 -1.6125 2.0075 -3.3125 2.6875 C-3.3125 3.3475 -3.3125 4.0075 -3.3125 4.6875 C-5.2925 5.0175 -7.2725 5.3475 -9.3125 5.6875 C-6.95107153 2.1453573 -4.52382785 -0.61132809 0 0 Z " fill="#C4D699" transform="translate(676.3125,154.3125)"/>
<path d="M0 0 C0.66 0 1.32 0 2 0 C2 3 2 3 -0.3125 5.625 C-3 8 -3 8 -6 9 C-4.4722133 5.56247993 -2.49818944 2.81046312 0 0 Z " fill="#C3D797" transform="translate(434,140)"/>
<path d="M0 0 C0 0.66 0 1.32 0 2 C-0.94875 2.103125 -1.8975 2.20625 -2.875 2.3125 C-6.29107501 2.68539295 -6.29107501 2.68539295 -8 6 C-8 4.35 -8 2.7 -8 1 C-5.29120665 -0.35439668 -2.99066732 -0.06501451 0 0 Z " fill="#DDE8C0" transform="translate(190,118)"/>
<path d="M0 0 C0 0.66 0 1.32 0 2 C-1.65 2 -3.3 2 -5 2 C-5 2.99 -5 3.98 -5 5 C-4.34 5.33 -3.68 5.66 -3 6 C-4.65 6 -6.3 6 -8 6 C-7.34 5.67 -6.68 5.34 -6 5 C-6 3.35 -6 1.7 -6 0 C-3 -1 -3 -1 0 0 Z " fill="#D1DBB4" transform="translate(196,153)"/>
<path d="M0 0 C-0.33 1.98 -0.66 3.96 -1 6 C-1.99 6 -2.98 6 -4 6 C-4 4.35 -4 2.7 -4 1 C-2 0 -2 0 0 0 Z " fill="#F7FBE8" transform="translate(129,189)"/>
<path d="M0 0 C0.66 0 1.32 0 2 0 C2.14285714 7.42857143 2.14285714 7.42857143 1 11 C0.01 10.67 -0.98 10.34 -2 10 C-1.67 9.0925 -1.34 8.185 -1 7.25 C0.19605723 3.92954193 0.19605723 3.92954193 0 0 Z " fill="#E4EBCB" transform="translate(188,129)"/>
<path d="M0 0 C0.99 0.66 1.98 1.32 3 2 C3 2.66 3 3.32 3 4 C-1.455 4.495 -1.455 4.495 -6 5 C-5.34 4.01 -4.68 3.02 -4 2 C-2.68 2.33 -1.36 2.66 0 3 C0 2.01 0 1.02 0 0 Z " fill="#F8FCEA" transform="translate(184,126)"/>
<path d="M0 0 C0.66 0 1.32 0 2 0 C2.25 2.8125 2.25 2.8125 2 6 C0 7.875 0 7.875 -2 9 C-1.34 6.03 -0.68 3.06 0 0 Z " fill="#D1DFAE" transform="translate(376,111)"/>
<path d="M0 0 C-1 3 -1 3 -4.0625 4.6875 C-5.031875 5.120625 -6.00125 5.55375 -7 6 C-7.33 5.01 -7.66 4.02 -8 3 C-2.25 0 -2.25 0 0 0 Z " fill="#C9DBA0" transform="translate(464,134)"/>
<path d="M0 0 C1.32 0.33 2.64 0.66 4 1 C3.67 3.31 3.34 5.62 3 8 C2.34 8 1.68 8 1 8 C0.67 5.36 0.34 2.72 0 0 Z " fill="#C2D593" transform="translate(596,119)"/>
<path d="M0 0 C-2.88395737 1.44197868 -5.82430479 1.58833581 -9 2 C-9.33 1.01 -9.66 0.02 -10 -1 C-6.06329512 -2.31223496 -3.87511856 -1.24296256 0 0 Z " fill="#E0E8C6" transform="translate(130,135)"/>
<path d="M0 0 C1.65 1.65 3.3 3.3 5 5 C3.02 5.99 3.02 5.99 1 7 C-0.0625 4.625 -0.0625 4.625 -1 2 C-0.67 1.34 -0.34 0.68 0 0 Z " fill="#DAE3BF" transform="translate(118,121)"/>
<path d="M0 0 C1.32 0 2.64 0 4 0 C4 0.66 4 1.32 4 2 C3.34 2 2.68 2 2 2 C1.34 4.31 0.68 6.62 0 9 C-1.10844919 5.67465243 -0.84454356 3.37817425 0 0 Z " fill="#C4D69C" transform="translate(515,122)"/>
<path d="M0 0 C1.98 0.66 3.96 1.32 6 2 C6 3.32 6 4.64 6 6 C5.01 5.67 4.02 5.34 3 5 C3 4.34 3 3.68 3 3 C2.34 3 1.68 3 1 3 C0.67 2.01 0.34 1.02 0 0 Z " fill="#CFDEAC" transform="translate(728,118)"/>
<path d="M0 0 C2 0 2 0 4.625 2.375 C7 5 7 5 7 7 C5.1875 6.875 5.1875 6.875 3 6 C1.25 2.9375 1.25 2.9375 0 0 Z " fill="#C7D8A0" transform="translate(629,149)"/>
<path d="M0 0 C-3.33333333 1.66666667 -6.66666667 3.33333333 -10 5 C-9.875 3.125 -9.875 3.125 -9 1 C-5.3931275 -0.64661571 -3.8148779 -1.27162597 0 0 Z " fill="#F6F9E6" transform="translate(171,141)"/>
<path d="M0 0 C0.66 0.66 1.32 1.32 2 2 C0.02 2.66 -1.96 3.32 -4 4 C-4 5.32 -4 6.64 -4 8 C-4.66 8 -5.32 8 -6 8 C-5.8125 5.6875 -5.8125 5.6875 -5 3 C-2.4375 1.1875 -2.4375 1.1875 0 0 Z " fill="#C7D99B" transform="translate(377,118)"/>
</svg>
